<svg xmlns="http://www.w3.org/2000/svg" width="750" height="262" viewBox="0 0 750 262" fill="none">
  <defs>
    <filter id="shadow" x="-5%" y="-5%" width="110%" height="110%">
      <feDropShadow dx="0" dy="6" stdDeviation="10" flood-color="#000000" flood-opacity="0.12"/>
    </filter>
    <linearGradient id="header-grad" x1="0" y1="0" x2="200" y2="0" gradientUnits="userSpaceOnUse">
      <stop offset="0%" stop-color="#0366d6"/>
      <stop offset="100%" stop-color="#6f42c1"/>
    </linearGradient>
    <linearGradient id="area-fill" x1="0" y1="70" x2="0" y2="196" gradientUnits="userSpaceOnUse">
      <stop offset="0%" stop-color="#0366d6" stop-opacity="0.22"/>
      <stop offset="100%" stop-color="#0366d6" stop-opacity="0"/>
    </linearGradient>
    <linearGradient id="line-grad" x1="45" y1="0" x2="705" y2="0" gradientUnits="userSpaceOnUse">
      <stop offset="0%" stop-color="#0366d6"/>
      <stop offset="100%" stop-color="#6f42c1"/>
    </linearGradient>
    
  </defs>

  <rect x="15" y="15" width="720" height="232" rx="12" fill="#f6f8fa" stroke="#d1d5db" stroke-width="1.5" filter="url(#shadow)"/>

  <text x="45" y="46" font-family="-apple-system, BlinkMacSystemFont, 'Inter', 'Segoe UI', sans-serif" font-size="12" font-weight="800" fill="#0366d6" letter-spacing="1">CONTRIBUTION ACTIVITY</text>
  <rect x="45" y="53" width="45" height="2" rx="1" fill="url(#header-grad)"/>
  <text x="705" y="46" font-family="-apple-system, BlinkMacSystemFont, 'Inter', 'Segoe UI', sans-serif" font-size="11.5" font-weight="600" fill="#6a737d" text-anchor="end">1,019 in the last year</text>
  <line x1="45" y1="196" x2="705" y2="196" stroke="#d1d5db" stroke-width="1"/>
  <line x1="50.41" y1="70" x2="50.41" y2="196" stroke="#d1d5db" stroke-width="1" opacity="0.5"/>
  <text x="50.41" y="216" font-family="-apple-system, BlinkMacSystemFont, 'Inter', 'Segoe UI', sans-serif" font-size="10" fill="#6a737d" text-anchor="middle">Oct</text>
  <line x1="106.31" y1="70" x2="106.31" y2="196" stroke="#d1d5db" stroke-width="1" opacity="0.5"/>
  <text x="106.31" y="216" font-family="-apple-system, BlinkMacSystemFont, 'Inter', 'Segoe UI', sans-serif" font-size="10" fill="#6a737d" text-anchor="middle">Nov</text>
  <line x1="160.41" y1="70" x2="160.41" y2="196" stroke="#d1d5db" stroke-width="1" opacity="0.5"/>
  <text x="160.41" y="216" font-family="-apple-system, BlinkMacSystemFont, 'Inter', 'Segoe UI', sans-serif" font-size="10" fill="#6a737d" text-anchor="middle">Dec</text>
  <line x1="216.31" y1="70" x2="216.31" y2="196" stroke="#d1d5db" stroke-width="1" opacity="0.5"/>
  <text x="216.31" y="216" font-family="-apple-system, BlinkMacSystemFont, 'Inter', 'Segoe UI', sans-serif" font-size="10" fill="#6a737d" text-anchor="middle">Jan</text>
  <line x1="272.21" y1="70" x2="272.21" y2="196" stroke="#d1d5db" stroke-width="1" opacity="0.5"/>
  <text x="272.21" y="216" font-family="-apple-system, BlinkMacSystemFont, 'Inter', 'Segoe UI', sans-serif" font-size="10" fill="#6a737d" text-anchor="middle">Feb</text>
  <line x1="322.70" y1="70" x2="322.70" y2="196" stroke="#d1d5db" stroke-width="1" opacity="0.5"/>
  <text x="322.70" y="216" font-family="-apple-system, BlinkMacSystemFont, 'Inter', 'Segoe UI', sans-serif" font-size="10" fill="#6a737d" text-anchor="middle">Mar</text>
  <line x1="378.61" y1="70" x2="378.61" y2="196" stroke="#d1d5db" stroke-width="1" opacity="0.5"/>
  <text x="378.61" y="216" font-family="-apple-system, BlinkMacSystemFont, 'Inter', 'Segoe UI', sans-serif" font-size="10" fill="#6a737d" text-anchor="middle">Apr</text>
  <line x1="432.70" y1="70" x2="432.70" y2="196" stroke="#d1d5db" stroke-width="1" opacity="0.5"/>
  <text x="432.70" y="216" font-family="-apple-system, BlinkMacSystemFont, 'Inter', 'Segoe UI', sans-serif" font-size="10" fill="#6a737d" text-anchor="middle">May</text>
  <line x1="488.61" y1="70" x2="488.61" y2="196" stroke="#d1d5db" stroke-width="1" opacity="0.5"/>
  <text x="488.61" y="216" font-family="-apple-system, BlinkMacSystemFont, 'Inter', 'Segoe UI', sans-serif" font-size="10" fill="#6a737d" text-anchor="middle">Jun</text>
  <line x1="542.70" y1="70" x2="542.70" y2="196" stroke="#d1d5db" stroke-width="1" opacity="0.5"/>
  <text x="542.70" y="216" font-family="-apple-system, BlinkMacSystemFont, 'Inter', 'Segoe UI', sans-serif" font-size="10" fill="#6a737d" text-anchor="middle">Jul</text>
  <line x1="598.61" y1="70" x2="598.61" y2="196" stroke="#d1d5db" stroke-width="1" opacity="0.5"/>
  <text x="598.61" y="216" font-family="-apple-system, BlinkMacSystemFont, 'Inter', 'Segoe UI', sans-serif" font-size="10" fill="#6a737d" text-anchor="middle">Aug</text>
  <line x1="654.51" y1="70" x2="654.51" y2="196" stroke="#d1d5db" stroke-width="1" opacity="0.5"/>
  <text x="654.51" y="216" font-family="-apple-system, BlinkMacSystemFont, 'Inter', 'Segoe UI', sans-serif" font-size="10" fill="#6a737d" text-anchor="middle">Sep</text>
  <path d="M 45.00,196.00 L 46.80,196.00 L 48.61,196.00 L 50.41,196.00 L 52.21,191.86 L 54.02,196.00 L 55.82,196.00 L 57.62,196.00 L 59.43,196.00 L 61.23,196.00 L 63.03,196.00 L 64.84,196.00 L 66.64,196.00 L 68.44,196.00 L 70.25,196.00 L 72.05,196.00 L 73.85,196.00 L 75.66,196.00 L 77.46,196.00 L 79.26,196.00 L 81.07,196.00 L 82.87,196.00 L 84.67,196.00 L 86.48,196.00 L 88.28,196.00 L 90.08,196.00 L 91.89,196.00 L 93.69,196.00 L 95.49,196.00 L 97.30,196.00 L 99.10,196.00 L 100.90,196.00 L 102.70,196.00 L 104.51,196.00 L 106.31,196.00 L 108.11,196.00 L 109.92,196.00 L 111.72,196.00 L 113.52,196.00 L 115.33,196.00 L 117.13,196.00 L 118.93,196.00 L 120.74,196.00 L 122.54,196.00 L 124.34,196.00 L 126.15,196.00 L 127.95,196.00 L 129.75,196.00 L 131.56,193.51 L 133.36,196.00 L 135.16,195.17 L 136.97,196.00 L 138.77,196.00 L 140.57,196.00 L 142.38,196.00 L 144.18,196.00 L 145.98,196.00 L 147.79,196.00 L 149.59,196.00 L 151.39,196.00 L 153.20,196.00 L 155.00,196.00 L 156.80,193.51 L 158.61,196.00 L 160.41,196.00 L 162.21,196.00 L 164.02,196.00 L 165.82,196.00 L 167.62,196.00 L 169.43,196.00 L 171.23,196.00 L 173.03,196.00 L 174.84,196.00 L 176.64,196.00 L 178.44,196.00 L 180.25,196.00 L 182.05,196.00 L 183.85,196.00 L 185.66,196.00 L 187.46,196.00 L 189.26,196.00 L 191.07,196.00 L 192.87,196.00 L 194.67,196.00 L 196.48,196.00 L 198.28,196.00 L 200.08,196.00 L 201.89,196.00 L 203.69,196.00 L 205.49,196.00 L 207.30,196.00 L 209.10,196.00 L 210.90,196.00 L 212.70,196.00 L 214.51,196.00 L 216.31,196.00 L 218.11,196.00 L 219.92,196.00 L 221.72,196.00 L 223.52,196.00 L 225.33,196.00 L 227.13,196.00 L 228.93,196.00 L 230.74,196.00 L 232.54,196.00 L 234.34,196.00 L 236.15,196.00 L 237.95,196.00 L 239.75,196.00 L 241.56,196.00 L 243.36,196.00 L 245.16,196.00 L 246.97,194.34 L 248.77,196.00 L 250.57,196.00 L 252.38,196.00 L 254.18,196.00 L 255.98,196.00 L 257.79,196.00 L 259.59,196.00 L 261.39,196.00 L 263.20,196.00 L 265.00,196.00 L 266.80,196.00 L 268.61,196.00 L 270.41,196.00 L 272.21,196.00 L 274.02,196.00 L 275.82,196.00 L 277.62,196.00 L 279.43,196.00 L 281.23,196.00 L 283.03,196.00 L 284.84,196.00 L 286.64,196.00 L 288.44,196.00 L 290.25,196.00 L 292.05,196.00 L 293.85,196.00 L 295.66,191.86 L 297.46,196.00 L 299.26,196.00 L 301.07,196.00 L 302.87,196.00 L 304.67,196.00 L 306.48,196.00 L 308.28,196.00 L 310.08,196.00 L 311.89,196.00 L 313.69,196.00 L 315.49,196.00 L 317.30,192.68 L 319.10,195.17 L 320.90,196.00 L 322.70,196.00 L 324.51,196.00 L 326.31,196.00 L 328.11,196.00 L 329.92,196.00 L 331.72,196.00 L 333.52,196.00 L 335.33,196.00 L 337.13,196.00 L 338.93,196.00 L 340.74,196.00 L 342.54,196.00 L 344.34,196.00 L 346.15,196.00 L 347.95,196.00 L 349.75,196.00 L 351.56,196.00 L 353.36,196.00 L 355.16,196.00 L 356.97,196.00 L 358.77,196.00 L 360.57,196.00 L 362.38,196.00 L 364.18,196.00 L 365.98,193.51 L 367.79,196.00 L 369.59,196.00 L 371.39,196.00 L 373.20,196.00 L 375.00,196.00 L 376.80,196.00 L 378.61,196.00 L 380.41,196.00 L 382.21,196.00 L 384.02,196.00 L 385.82,196.00 L 387.62,196.00 L 389.43,196.00 L 391.23,194.34 L 393.03,196.00 L 394.84,196.00 L 396.64,196.00 L 398.44,196.00 L 400.25,196.00 L 402.05,196.00 L 403.85,195.17 L 405.66,196.00 L 407.46,196.00 L 409.26,196.00 L 411.07,196.00 L 412.87,194.34 L 414.67,190.20 L 416.48,196.00 L 418.28,196.00 L 420.08,196.00 L 421.89,196.00 L 423.69,196.00 L 425.49,194.34 L 427.30,196.00 L 429.10,196.00 L 430.90,196.00 L 432.70,196.00 L 434.51,196.00 L 436.31,196.00 L 438.11,196.00 L 439.92,196.00 L 441.72,196.00 L 443.52,196.00 L 445.33,196.00 L 447.13,196.00 L 448.93,194.34 L 450.74,196.00 L 452.54,196.00 L 454.34,191.86 L 456.15,189.37 L 457.95,195.17 L 459.75,196.00 L 461.56,188.54 L 463.36,187.71 L 465.16,196.00 L 466.97,193.51 L 468.77,195.17 L 470.57,193.51 L 472.38,188.54 L 474.18,196.00 L 475.98,193.51 L 477.79,194.34 L 479.59,193.51 L 481.39,196.00 L 483.20,193.51 L 485.00,196.00 L 486.80,187.71 L 488.61,195.17 L 490.41,193.51 L 492.21,196.00 L 494.02,196.00 L 495.82,195.17 L 497.62,191.03 L 499.43,186.88 L 501.23,179.42 L 503.03,190.20 L 504.84,196.00 L 506.64,194.34 L 508.44,196.00 L 510.25,196.00 L 512.05,195.17 L 513.85,196.00 L 515.66,196.00 L 517.46,196.00 L 519.26,196.00 L 521.07,192.68 L 522.87,192.68 L 524.67,193.51 L 526.48,195.17 L 528.28,196.00 L 530.08,196.00 L 531.89,196.00 L 533.69,188.54 L 535.49,196.00 L 537.30,196.00 L 539.10,196.00 L 540.90,196.00 L 542.70,196.00 L 544.51,178.59 L 546.31,196.00 L 548.11,196.00 L 549.92,196.00 L 551.72,196.00 L 553.52,196.00 L 555.33,196.00 L 557.13,196.00 L 558.93,196.00 L 560.74,196.00 L 562.54,196.00 L 564.34,196.00 L 566.15,196.00 L 567.95,196.00 L 569.75,194.34 L 571.56,196.00 L 573.36,192.68 L 575.16,196.00 L 576.97,193.51 L 578.77,196.00 L 580.57,191.86 L 582.38,196.00 L 584.18,191.86 L 585.98,196.00 L 587.79,196.00 L 589.59,187.71 L 591.39,191.03 L 593.20,191.03 L 595.00,191.86 L 596.80,187.71 L 598.61,194.34 L 600.41,195.17 L 602.21,196.00 L 604.02,194.34 L 605.82,172.79 L 607.62,186.88 L 609.43,192.68 L 611.23,189.37 L 613.03,191.86 L 614.84,107.30 L 616.64,189.37 L 618.44,191.03 L 620.25,190.20 L 622.05,186.05 L 623.85,195.17 L 625.66,183.57 L 627.46,193.51 L 629.26,191.86 L 631.07,179.42 L 632.87,176.11 L 634.67,178.59 L 636.48,183.57 L 638.28,191.03 L 640.08,166.99 L 641.89,189.37 L 643.69,196.00 L 645.49,189.37 L 647.30,193.51 L 649.10,196.00 L 650.90,170.30 L 652.70,187.71 L 654.51,186.88 L 656.31,192.68 L 658.11,185.22 L 659.92,192.68 L 661.72,194.34 L 663.52,184.39 L 665.33,190.20 L 667.13,192.68 L 668.93,194.34 L 670.74,196.00 L 672.54,189.37 L 674.34,182.74 L 676.15,196.00 L 677.95,190.20 L 679.75,182.74 L 681.56,181.08 L 683.36,195.17 L 685.16,190.20 L 686.97,160.36 L 688.77,70.00 L 690.57,194.34 L 692.38,195.17 L 694.18,196.00 L 695.98,189.37 L 697.79,194.34 L 699.59,196.00 L 701.39,191.03 L 703.20,194.34 L 705.00,196.00 L 705.00,196 L 45.00,196 Z" fill="url(#area-fill)"/>
  <path d="M 45.00,196.00 L 46.80,196.00 L 48.61,196.00 L 50.41,196.00 L 52.21,191.86 L 54.02,196.00 L 55.82,196.00 L 57.62,196.00 L 59.43,196.00 L 61.23,196.00 L 63.03,196.00 L 64.84,196.00 L 66.64,196.00 L 68.44,196.00 L 70.25,196.00 L 72.05,196.00 L 73.85,196.00 L 75.66,196.00 L 77.46,196.00 L 79.26,196.00 L 81.07,196.00 L 82.87,196.00 L 84.67,196.00 L 86.48,196.00 L 88.28,196.00 L 90.08,196.00 L 91.89,196.00 L 93.69,196.00 L 95.49,196.00 L 97.30,196.00 L 99.10,196.00 L 100.90,196.00 L 102.70,196.00 L 104.51,196.00 L 106.31,196.00 L 108.11,196.00 L 109.92,196.00 L 111.72,196.00 L 113.52,196.00 L 115.33,196.00 L 117.13,196.00 L 118.93,196.00 L 120.74,196.00 L 122.54,196.00 L 124.34,196.00 L 126.15,196.00 L 127.95,196.00 L 129.75,196.00 L 131.56,193.51 L 133.36,196.00 L 135.16,195.17 L 136.97,196.00 L 138.77,196.00 L 140.57,196.00 L 142.38,196.00 L 144.18,196.00 L 145.98,196.00 L 147.79,196.00 L 149.59,196.00 L 151.39,196.00 L 153.20,196.00 L 155.00,196.00 L 156.80,193.51 L 158.61,196.00 L 160.41,196.00 L 162.21,196.00 L 164.02,196.00 L 165.82,196.00 L 167.62,196.00 L 169.43,196.00 L 171.23,196.00 L 173.03,196.00 L 174.84,196.00 L 176.64,196.00 L 178.44,196.00 L 180.25,196.00 L 182.05,196.00 L 183.85,196.00 L 185.66,196.00 L 187.46,196.00 L 189.26,196.00 L 191.07,196.00 L 192.87,196.00 L 194.67,196.00 L 196.48,196.00 L 198.28,196.00 L 200.08,196.00 L 201.89,196.00 L 203.69,196.00 L 205.49,196.00 L 207.30,196.00 L 209.10,196.00 L 210.90,196.00 L 212.70,196.00 L 214.51,196.00 L 216.31,196.00 L 218.11,196.00 L 219.92,196.00 L 221.72,196.00 L 223.52,196.00 L 225.33,196.00 L 227.13,196.00 L 228.93,196.00 L 230.74,196.00 L 232.54,196.00 L 234.34,196.00 L 236.15,196.00 L 237.95,196.00 L 239.75,196.00 L 241.56,196.00 L 243.36,196.00 L 245.16,196.00 L 246.97,194.34 L 248.77,196.00 L 250.57,196.00 L 252.38,196.00 L 254.18,196.00 L 255.98,196.00 L 257.79,196.00 L 259.59,196.00 L 261.39,196.00 L 263.20,196.00 L 265.00,196.00 L 266.80,196.00 L 268.61,196.00 L 270.41,196.00 L 272.21,196.00 L 274.02,196.00 L 275.82,196.00 L 277.62,196.00 L 279.43,196.00 L 281.23,196.00 L 283.03,196.00 L 284.84,196.00 L 286.64,196.00 L 288.44,196.00 L 290.25,196.00 L 292.05,196.00 L 293.85,196.00 L 295.66,191.86 L 297.46,196.00 L 299.26,196.00 L 301.07,196.00 L 302.87,196.00 L 304.67,196.00 L 306.48,196.00 L 308.28,196.00 L 310.08,196.00 L 311.89,196.00 L 313.69,196.00 L 315.49,196.00 L 317.30,192.68 L 319.10,195.17 L 320.90,196.00 L 322.70,196.00 L 324.51,196.00 L 326.31,196.00 L 328.11,196.00 L 329.92,196.00 L 331.72,196.00 L 333.52,196.00 L 335.33,196.00 L 337.13,196.00 L 338.93,196.00 L 340.74,196.00 L 342.54,196.00 L 344.34,196.00 L 346.15,196.00 L 347.95,196.00 L 349.75,196.00 L 351.56,196.00 L 353.36,196.00 L 355.16,196.00 L 356.97,196.00 L 358.77,196.00 L 360.57,196.00 L 362.38,196.00 L 364.18,196.00 L 365.98,193.51 L 367.79,196.00 L 369.59,196.00 L 371.39,196.00 L 373.20,196.00 L 375.00,196.00 L 376.80,196.00 L 378.61,196.00 L 380.41,196.00 L 382.21,196.00 L 384.02,196.00 L 385.82,196.00 L 387.62,196.00 L 389.43,196.00 L 391.23,194.34 L 393.03,196.00 L 394.84,196.00 L 396.64,196.00 L 398.44,196.00 L 400.25,196.00 L 402.05,196.00 L 403.85,195.17 L 405.66,196.00 L 407.46,196.00 L 409.26,196.00 L 411.07,196.00 L 412.87,194.34 L 414.67,190.20 L 416.48,196.00 L 418.28,196.00 L 420.08,196.00 L 421.89,196.00 L 423.69,196.00 L 425.49,194.34 L 427.30,196.00 L 429.10,196.00 L 430.90,196.00 L 432.70,196.00 L 434.51,196.00 L 436.31,196.00 L 438.11,196.00 L 439.92,196.00 L 441.72,196.00 L 443.52,196.00 L 445.33,196.00 L 447.13,196.00 L 448.93,194.34 L 450.74,196.00 L 452.54,196.00 L 454.34,191.86 L 456.15,189.37 L 457.95,195.17 L 459.75,196.00 L 461.56,188.54 L 463.36,187.71 L 465.16,196.00 L 466.97,193.51 L 468.77,195.17 L 470.57,193.51 L 472.38,188.54 L 474.18,196.00 L 475.98,193.51 L 477.79,194.34 L 479.59,193.51 L 481.39,196.00 L 483.20,193.51 L 485.00,196.00 L 486.80,187.71 L 488.61,195.17 L 490.41,193.51 L 492.21,196.00 L 494.02,196.00 L 495.82,195.17 L 497.62,191.03 L 499.43,186.88 L 501.23,179.42 L 503.03,190.20 L 504.84,196.00 L 506.64,194.34 L 508.44,196.00 L 510.25,196.00 L 512.05,195.17 L 513.85,196.00 L 515.66,196.00 L 517.46,196.00 L 519.26,196.00 L 521.07,192.68 L 522.87,192.68 L 524.67,193.51 L 526.48,195.17 L 528.28,196.00 L 530.08,196.00 L 531.89,196.00 L 533.69,188.54 L 535.49,196.00 L 537.30,196.00 L 539.10,196.00 L 540.90,196.00 L 542.70,196.00 L 544.51,178.59 L 546.31,196.00 L 548.11,196.00 L 549.92,196.00 L 551.72,196.00 L 553.52,196.00 L 555.33,196.00 L 557.13,196.00 L 558.93,196.00 L 560.74,196.00 L 562.54,196.00 L 564.34,196.00 L 566.15,196.00 L 567.95,196.00 L 569.75,194.34 L 571.56,196.00 L 573.36,192.68 L 575.16,196.00 L 576.97,193.51 L 578.77,196.00 L 580.57,191.86 L 582.38,196.00 L 584.18,191.86 L 585.98,196.00 L 587.79,196.00 L 589.59,187.71 L 591.39,191.03 L 593.20,191.03 L 595.00,191.86 L 596.80,187.71 L 598.61,194.34 L 600.41,195.17 L 602.21,196.00 L 604.02,194.34 L 605.82,172.79 L 607.62,186.88 L 609.43,192.68 L 611.23,189.37 L 613.03,191.86 L 614.84,107.30 L 616.64,189.37 L 618.44,191.03 L 620.25,190.20 L 622.05,186.05 L 623.85,195.17 L 625.66,183.57 L 627.46,193.51 L 629.26,191.86 L 631.07,179.42 L 632.87,176.11 L 634.67,178.59 L 636.48,183.57 L 638.28,191.03 L 640.08,166.99 L 641.89,189.37 L 643.69,196.00 L 645.49,189.37 L 647.30,193.51 L 649.10,196.00 L 650.90,170.30 L 652.70,187.71 L 654.51,186.88 L 656.31,192.68 L 658.11,185.22 L 659.92,192.68 L 661.72,194.34 L 663.52,184.39 L 665.33,190.20 L 667.13,192.68 L 668.93,194.34 L 670.74,196.00 L 672.54,189.37 L 674.34,182.74 L 676.15,196.00 L 677.95,190.20 L 679.75,182.74 L 681.56,181.08 L 683.36,195.17 L 685.16,190.20 L 686.97,160.36 L 688.77,70.00 L 690.57,194.34 L 692.38,195.17 L 694.18,196.00 L 695.98,189.37 L 697.79,194.34 L 699.59,196.00 L 701.39,191.03 L 703.20,194.34 L 705.00,196.00" fill="none" stroke="url(#line-grad)" stroke-width="2" stroke-linejoin="round" stroke-linecap="round"/>
  <text x="705" y="236" font-family="-apple-system, BlinkMacSystemFont, 'Inter', 'Segoe UI', sans-serif" font-size="10.5" fill="#6a737d" text-anchor="end">updated 2026-09-29</text>
</svg>
