<svg xmlns="http://www.w3.org/2000/svg" width="750" height="262" viewBox="0 0 750 262" fill="none">
  <defs>
    <filter id="shadow" x="-5%" y="-5%" width="110%" height="110%">
      <feDropShadow dx="0" dy="6" stdDeviation="10" flood-color="#000000" flood-opacity="0.5"/>
    </filter>
    <linearGradient id="header-grad" x1="0" y1="0" x2="200" y2="0" gradientUnits="userSpaceOnUse">
      <stop offset="0%" stop-color="#7aa2f7"/>
      <stop offset="100%" stop-color="#bb9af3"/>
    </linearGradient>
    <linearGradient id="area-fill" x1="0" y1="70" x2="0" y2="196" gradientUnits="userSpaceOnUse">
      <stop offset="0%" stop-color="#7aa2f7" stop-opacity="0.35"/>
      <stop offset="100%" stop-color="#7aa2f7" stop-opacity="0"/>
    </linearGradient>
    <linearGradient id="line-grad" x1="45" y1="0" x2="705" y2="0" gradientUnits="userSpaceOnUse">
      <stop offset="0%" stop-color="#7aa2f7"/>
      <stop offset="100%" stop-color="#bb9af3"/>
    </linearGradient>
    
  </defs>

  <rect x="15" y="15" width="720" height="232" rx="12" fill="#1a1b26" stroke="#24283b" stroke-width="1.5" filter="url(#shadow)"/>

  <text x="45" y="46" font-family="-apple-system, BlinkMacSystemFont, 'Inter', 'Segoe UI', sans-serif" font-size="12" font-weight="800" fill="#7aa2f7" letter-spacing="1">CONTRIBUTION ACTIVITY</text>
  <rect x="45" y="53" width="45" height="2" rx="1" fill="url(#header-grad)"/>
  <text x="705" y="46" font-family="-apple-system, BlinkMacSystemFont, 'Inter', 'Segoe UI', sans-serif" font-size="11.5" font-weight="600" fill="#565f89" text-anchor="end">1,011 in the last year</text>
  <line x1="45" y1="196" x2="705" y2="196" stroke="#24283b" stroke-width="1"/>
  <line x1="62.84" y1="70" x2="62.84" y2="196" stroke="#24283b" stroke-width="1" opacity="0.5"/>
  <text x="62.84" y="216" font-family="-apple-system, BlinkMacSystemFont, 'Inter', 'Segoe UI', sans-serif" font-size="10" fill="#565f89" text-anchor="middle">Oct</text>
  <line x1="118.14" y1="70" x2="118.14" y2="196" stroke="#24283b" stroke-width="1" opacity="0.5"/>
  <text x="118.14" y="216" font-family="-apple-system, BlinkMacSystemFont, 'Inter', 'Segoe UI', sans-serif" font-size="10" fill="#565f89" text-anchor="middle">Nov</text>
  <line x1="171.65" y1="70" x2="171.65" y2="196" stroke="#24283b" stroke-width="1" opacity="0.5"/>
  <text x="171.65" y="216" font-family="-apple-system, BlinkMacSystemFont, 'Inter', 'Segoe UI', sans-serif" font-size="10" fill="#565f89" text-anchor="middle">Dec</text>
  <line x1="226.95" y1="70" x2="226.95" y2="196" stroke="#24283b" stroke-width="1" opacity="0.5"/>
  <text x="226.95" y="216" font-family="-apple-system, BlinkMacSystemFont, 'Inter', 'Segoe UI', sans-serif" font-size="10" fill="#565f89" text-anchor="middle">Jan</text>
  <line x1="282.24" y1="70" x2="282.24" y2="196" stroke="#24283b" stroke-width="1" opacity="0.5"/>
  <text x="282.24" y="216" font-family="-apple-system, BlinkMacSystemFont, 'Inter', 'Segoe UI', sans-serif" font-size="10" fill="#565f89" text-anchor="middle">Feb</text>
  <line x1="332.19" y1="70" x2="332.19" y2="196" stroke="#24283b" stroke-width="1" opacity="0.5"/>
  <text x="332.19" y="216" font-family="-apple-system, BlinkMacSystemFont, 'Inter', 'Segoe UI', sans-serif" font-size="10" fill="#565f89" text-anchor="middle">Mar</text>
  <line x1="387.49" y1="70" x2="387.49" y2="196" stroke="#24283b" stroke-width="1" opacity="0.5"/>
  <text x="387.49" y="216" font-family="-apple-system, BlinkMacSystemFont, 'Inter', 'Segoe UI', sans-serif" font-size="10" fill="#565f89" text-anchor="middle">Apr</text>
  <line x1="441.00" y1="70" x2="441.00" y2="196" stroke="#24283b" stroke-width="1" opacity="0.5"/>
  <text x="441.00" y="216" font-family="-apple-system, BlinkMacSystemFont, 'Inter', 'Segoe UI', sans-serif" font-size="10" fill="#565f89" text-anchor="middle">May</text>
  <line x1="496.30" y1="70" x2="496.30" y2="196" stroke="#24283b" stroke-width="1" opacity="0.5"/>
  <text x="496.30" y="216" font-family="-apple-system, BlinkMacSystemFont, 'Inter', 'Segoe UI', sans-serif" font-size="10" fill="#565f89" text-anchor="middle">Jun</text>
  <line x1="549.81" y1="70" x2="549.81" y2="196" stroke="#24283b" stroke-width="1" opacity="0.5"/>
  <text x="549.81" y="216" font-family="-apple-system, BlinkMacSystemFont, 'Inter', 'Segoe UI', sans-serif" font-size="10" fill="#565f89" text-anchor="middle">Jul</text>
  <line x1="605.11" y1="70" x2="605.11" y2="196" stroke="#24283b" stroke-width="1" opacity="0.5"/>
  <text x="605.11" y="216" font-family="-apple-system, BlinkMacSystemFont, 'Inter', 'Segoe UI', sans-serif" font-size="10" fill="#565f89" text-anchor="middle">Aug</text>
  <line x1="660.41" y1="70" x2="660.41" y2="196" stroke="#24283b" stroke-width="1" opacity="0.5"/>
  <text x="660.41" y="216" font-family="-apple-system, BlinkMacSystemFont, 'Inter', 'Segoe UI', sans-serif" font-size="10" fill="#565f89" text-anchor="middle">Sep</text>
  <path d="M 45.00,196.00 L 46.78,196.00 L 48.57,196.00 L 50.35,196.00 L 52.14,196.00 L 53.92,196.00 L 55.70,196.00 L 57.49,196.00 L 59.27,196.00 L 61.05,196.00 L 62.84,196.00 L 64.62,191.86 L 66.41,196.00 L 68.19,196.00 L 69.97,196.00 L 71.76,196.00 L 73.54,196.00 L 75.32,196.00 L 77.11,196.00 L 78.89,196.00 L 80.68,196.00 L 82.46,196.00 L 84.24,196.00 L 86.03,196.00 L 87.81,196.00 L 89.59,196.00 L 91.38,196.00 L 93.16,196.00 L 94.95,196.00 L 96.73,196.00 L 98.51,196.00 L 100.30,196.00 L 102.08,196.00 L 103.86,196.00 L 105.65,196.00 L 107.43,196.00 L 109.22,196.00 L 111.00,196.00 L 112.78,196.00 L 114.57,196.00 L 116.35,196.00 L 118.14,196.00 L 119.92,196.00 L 121.70,196.00 L 123.49,196.00 L 125.27,196.00 L 127.05,196.00 L 128.84,196.00 L 130.62,196.00 L 132.41,196.00 L 134.19,196.00 L 135.97,196.00 L 137.76,196.00 L 139.54,196.00 L 141.32,196.00 L 143.11,193.51 L 144.89,196.00 L 146.68,195.17 L 148.46,196.00 L 150.24,196.00 L 152.03,196.00 L 153.81,196.00 L 155.59,196.00 L 157.38,196.00 L 159.16,196.00 L 160.95,196.00 L 162.73,196.00 L 164.51,196.00 L 166.30,196.00 L 168.08,193.51 L 169.86,196.00 L 171.65,196.00 L 173.43,196.00 L 175.22,196.00 L 177.00,196.00 L 178.78,196.00 L 180.57,196.00 L 182.35,196.00 L 184.14,196.00 L 185.92,196.00 L 187.70,196.00 L 189.49,196.00 L 191.27,196.00 L 193.05,196.00 L 194.84,196.00 L 196.62,196.00 L 198.41,196.00 L 200.19,196.00 L 201.97,196.00 L 203.76,196.00 L 205.54,196.00 L 207.32,196.00 L 209.11,196.00 L 210.89,196.00 L 212.68,196.00 L 214.46,196.00 L 216.24,196.00 L 218.03,196.00 L 219.81,196.00 L 221.59,196.00 L 223.38,196.00 L 225.16,196.00 L 226.95,196.00 L 228.73,196.00 L 230.51,196.00 L 232.30,196.00 L 234.08,196.00 L 235.86,196.00 L 237.65,196.00 L 239.43,196.00 L 241.22,196.00 L 243.00,196.00 L 244.78,196.00 L 246.57,196.00 L 248.35,196.00 L 250.14,196.00 L 251.92,196.00 L 253.70,196.00 L 255.49,196.00 L 257.27,194.34 L 259.05,196.00 L 260.84,196.00 L 262.62,196.00 L 264.41,196.00 L 266.19,196.00 L 267.97,196.00 L 269.76,196.00 L 271.54,196.00 L 273.32,196.00 L 275.11,196.00 L 276.89,196.00 L 278.68,196.00 L 280.46,196.00 L 282.24,196.00 L 284.03,196.00 L 285.81,196.00 L 287.59,196.00 L 289.38,196.00 L 291.16,196.00 L 292.95,196.00 L 294.73,196.00 L 296.51,196.00 L 298.30,196.00 L 300.08,196.00 L 301.86,196.00 L 303.65,196.00 L 305.43,191.86 L 307.22,196.00 L 309.00,196.00 L 310.78,196.00 L 312.57,196.00 L 314.35,196.00 L 316.14,196.00 L 317.92,196.00 L 319.70,196.00 L 321.49,196.00 L 323.27,196.00 L 325.05,196.00 L 326.84,192.68 L 328.62,195.17 L 330.41,196.00 L 332.19,196.00 L 333.97,196.00 L 335.76,196.00 L 337.54,196.00 L 339.32,196.00 L 341.11,196.00 L 342.89,196.00 L 344.68,196.00 L 346.46,196.00 L 348.24,196.00 L 350.03,196.00 L 351.81,196.00 L 353.59,196.00 L 355.38,196.00 L 357.16,196.00 L 358.95,196.00 L 360.73,196.00 L 362.51,196.00 L 364.30,196.00 L 366.08,196.00 L 367.86,196.00 L 369.65,196.00 L 371.43,196.00 L 373.22,196.00 L 375.00,193.51 L 376.78,196.00 L 378.57,196.00 L 380.35,196.00 L 382.14,196.00 L 383.92,196.00 L 385.70,196.00 L 387.49,196.00 L 389.27,196.00 L 391.05,196.00 L 392.84,196.00 L 394.62,196.00 L 396.41,196.00 L 398.19,196.00 L 399.97,194.34 L 401.76,196.00 L 403.54,196.00 L 405.32,196.00 L 407.11,196.00 L 408.89,196.00 L 410.68,196.00 L 412.46,195.17 L 414.24,196.00 L 416.03,196.00 L 417.81,196.00 L 419.59,196.00 L 421.38,194.34 L 423.16,190.20 L 424.95,196.00 L 426.73,196.00 L 428.51,196.00 L 430.30,196.00 L 432.08,196.00 L 433.86,194.34 L 435.65,196.00 L 437.43,196.00 L 439.22,196.00 L 441.00,196.00 L 442.78,196.00 L 444.57,196.00 L 446.35,196.00 L 448.14,196.00 L 449.92,196.00 L 451.70,196.00 L 453.49,196.00 L 455.27,196.00 L 457.05,194.34 L 458.84,196.00 L 460.62,196.00 L 462.41,191.86 L 464.19,189.37 L 465.97,195.17 L 467.76,196.00 L 469.54,188.54 L 471.32,187.71 L 473.11,196.00 L 474.89,193.51 L 476.68,195.17 L 478.46,193.51 L 480.24,188.54 L 482.03,196.00 L 483.81,193.51 L 485.59,194.34 L 487.38,193.51 L 489.16,196.00 L 490.95,193.51 L 492.73,196.00 L 494.51,187.71 L 496.30,195.17 L 498.08,193.51 L 499.86,196.00 L 501.65,196.00 L 503.43,195.17 L 505.22,191.03 L 507.00,186.88 L 508.78,179.42 L 510.57,190.20 L 512.35,196.00 L 514.14,194.34 L 515.92,196.00 L 517.70,196.00 L 519.49,195.17 L 521.27,196.00 L 523.05,196.00 L 524.84,196.00 L 526.62,196.00 L 528.41,192.68 L 530.19,192.68 L 531.97,193.51 L 533.76,195.17 L 535.54,196.00 L 537.32,196.00 L 539.11,196.00 L 540.89,188.54 L 542.68,196.00 L 544.46,196.00 L 546.24,196.00 L 548.03,196.00 L 549.81,196.00 L 551.59,178.59 L 553.38,196.00 L 555.16,196.00 L 556.95,196.00 L 558.73,196.00 L 560.51,196.00 L 562.30,196.00 L 564.08,196.00 L 565.86,196.00 L 567.65,196.00 L 569.43,196.00 L 571.22,196.00 L 573.00,196.00 L 574.78,196.00 L 576.57,194.34 L 578.35,196.00 L 580.14,192.68 L 581.92,196.00 L 583.70,193.51 L 585.49,196.00 L 587.27,191.86 L 589.05,196.00 L 590.84,191.86 L 592.62,196.00 L 594.41,196.00 L 596.19,187.71 L 597.97,191.03 L 599.76,191.03 L 601.54,191.86 L 603.32,187.71 L 605.11,194.34 L 606.89,195.17 L 608.68,196.00 L 610.46,194.34 L 612.24,172.79 L 614.03,186.88 L 615.81,192.68 L 617.59,189.37 L 619.38,191.86 L 621.16,107.30 L 622.95,189.37 L 624.73,191.03 L 626.51,190.20 L 628.30,186.05 L 630.08,195.17 L 631.86,183.57 L 633.65,193.51 L 635.43,191.86 L 637.22,179.42 L 639.00,176.11 L 640.78,178.59 L 642.57,183.57 L 644.35,191.03 L 646.14,166.99 L 647.92,189.37 L 649.70,196.00 L 651.49,189.37 L 653.27,193.51 L 655.05,196.00 L 656.84,170.30 L 658.62,187.71 L 660.41,186.88 L 662.19,192.68 L 663.97,185.22 L 665.76,192.68 L 667.54,194.34 L 669.32,184.39 L 671.11,190.20 L 672.89,192.68 L 674.68,194.34 L 676.46,196.00 L 678.24,189.37 L 680.03,182.74 L 681.81,196.00 L 683.59,190.20 L 685.38,182.74 L 687.16,181.08 L 688.95,195.17 L 690.73,190.20 L 692.51,160.36 L 694.30,70.00 L 696.08,194.34 L 697.86,195.17 L 699.65,196.00 L 701.43,189.37 L 703.22,194.34 L 705.00,196.00 L 705.00,196 L 45.00,196 Z" fill="url(#area-fill)"/>
  <path d="M 45.00,196.00 L 46.78,196.00 L 48.57,196.00 L 50.35,196.00 L 52.14,196.00 L 53.92,196.00 L 55.70,196.00 L 57.49,196.00 L 59.27,196.00 L 61.05,196.00 L 62.84,196.00 L 64.62,191.86 L 66.41,196.00 L 68.19,196.00 L 69.97,196.00 L 71.76,196.00 L 73.54,196.00 L 75.32,196.00 L 77.11,196.00 L 78.89,196.00 L 80.68,196.00 L 82.46,196.00 L 84.24,196.00 L 86.03,196.00 L 87.81,196.00 L 89.59,196.00 L 91.38,196.00 L 93.16,196.00 L 94.95,196.00 L 96.73,196.00 L 98.51,196.00 L 100.30,196.00 L 102.08,196.00 L 103.86,196.00 L 105.65,196.00 L 107.43,196.00 L 109.22,196.00 L 111.00,196.00 L 112.78,196.00 L 114.57,196.00 L 116.35,196.00 L 118.14,196.00 L 119.92,196.00 L 121.70,196.00 L 123.49,196.00 L 125.27,196.00 L 127.05,196.00 L 128.84,196.00 L 130.62,196.00 L 132.41,196.00 L 134.19,196.00 L 135.97,196.00 L 137.76,196.00 L 139.54,196.00 L 141.32,196.00 L 143.11,193.51 L 144.89,196.00 L 146.68,195.17 L 148.46,196.00 L 150.24,196.00 L 152.03,196.00 L 153.81,196.00 L 155.59,196.00 L 157.38,196.00 L 159.16,196.00 L 160.95,196.00 L 162.73,196.00 L 164.51,196.00 L 166.30,196.00 L 168.08,193.51 L 169.86,196.00 L 171.65,196.00 L 173.43,196.00 L 175.22,196.00 L 177.00,196.00 L 178.78,196.00 L 180.57,196.00 L 182.35,196.00 L 184.14,196.00 L 185.92,196.00 L 187.70,196.00 L 189.49,196.00 L 191.27,196.00 L 193.05,196.00 L 194.84,196.00 L 196.62,196.00 L 198.41,196.00 L 200.19,196.00 L 201.97,196.00 L 203.76,196.00 L 205.54,196.00 L 207.32,196.00 L 209.11,196.00 L 210.89,196.00 L 212.68,196.00 L 214.46,196.00 L 216.24,196.00 L 218.03,196.00 L 219.81,196.00 L 221.59,196.00 L 223.38,196.00 L 225.16,196.00 L 226.95,196.00 L 228.73,196.00 L 230.51,196.00 L 232.30,196.00 L 234.08,196.00 L 235.86,196.00 L 237.65,196.00 L 239.43,196.00 L 241.22,196.00 L 243.00,196.00 L 244.78,196.00 L 246.57,196.00 L 248.35,196.00 L 250.14,196.00 L 251.92,196.00 L 253.70,196.00 L 255.49,196.00 L 257.27,194.34 L 259.05,196.00 L 260.84,196.00 L 262.62,196.00 L 264.41,196.00 L 266.19,196.00 L 267.97,196.00 L 269.76,196.00 L 271.54,196.00 L 273.32,196.00 L 275.11,196.00 L 276.89,196.00 L 278.68,196.00 L 280.46,196.00 L 282.24,196.00 L 284.03,196.00 L 285.81,196.00 L 287.59,196.00 L 289.38,196.00 L 291.16,196.00 L 292.95,196.00 L 294.73,196.00 L 296.51,196.00 L 298.30,196.00 L 300.08,196.00 L 301.86,196.00 L 303.65,196.00 L 305.43,191.86 L 307.22,196.00 L 309.00,196.00 L 310.78,196.00 L 312.57,196.00 L 314.35,196.00 L 316.14,196.00 L 317.92,196.00 L 319.70,196.00 L 321.49,196.00 L 323.27,196.00 L 325.05,196.00 L 326.84,192.68 L 328.62,195.17 L 330.41,196.00 L 332.19,196.00 L 333.97,196.00 L 335.76,196.00 L 337.54,196.00 L 339.32,196.00 L 341.11,196.00 L 342.89,196.00 L 344.68,196.00 L 346.46,196.00 L 348.24,196.00 L 350.03,196.00 L 351.81,196.00 L 353.59,196.00 L 355.38,196.00 L 357.16,196.00 L 358.95,196.00 L 360.73,196.00 L 362.51,196.00 L 364.30,196.00 L 366.08,196.00 L 367.86,196.00 L 369.65,196.00 L 371.43,196.00 L 373.22,196.00 L 375.00,193.51 L 376.78,196.00 L 378.57,196.00 L 380.35,196.00 L 382.14,196.00 L 383.92,196.00 L 385.70,196.00 L 387.49,196.00 L 389.27,196.00 L 391.05,196.00 L 392.84,196.00 L 394.62,196.00 L 396.41,196.00 L 398.19,196.00 L 399.97,194.34 L 401.76,196.00 L 403.54,196.00 L 405.32,196.00 L 407.11,196.00 L 408.89,196.00 L 410.68,196.00 L 412.46,195.17 L 414.24,196.00 L 416.03,196.00 L 417.81,196.00 L 419.59,196.00 L 421.38,194.34 L 423.16,190.20 L 424.95,196.00 L 426.73,196.00 L 428.51,196.00 L 430.30,196.00 L 432.08,196.00 L 433.86,194.34 L 435.65,196.00 L 437.43,196.00 L 439.22,196.00 L 441.00,196.00 L 442.78,196.00 L 444.57,196.00 L 446.35,196.00 L 448.14,196.00 L 449.92,196.00 L 451.70,196.00 L 453.49,196.00 L 455.27,196.00 L 457.05,194.34 L 458.84,196.00 L 460.62,196.00 L 462.41,191.86 L 464.19,189.37 L 465.97,195.17 L 467.76,196.00 L 469.54,188.54 L 471.32,187.71 L 473.11,196.00 L 474.89,193.51 L 476.68,195.17 L 478.46,193.51 L 480.24,188.54 L 482.03,196.00 L 483.81,193.51 L 485.59,194.34 L 487.38,193.51 L 489.16,196.00 L 490.95,193.51 L 492.73,196.00 L 494.51,187.71 L 496.30,195.17 L 498.08,193.51 L 499.86,196.00 L 501.65,196.00 L 503.43,195.17 L 505.22,191.03 L 507.00,186.88 L 508.78,179.42 L 510.57,190.20 L 512.35,196.00 L 514.14,194.34 L 515.92,196.00 L 517.70,196.00 L 519.49,195.17 L 521.27,196.00 L 523.05,196.00 L 524.84,196.00 L 526.62,196.00 L 528.41,192.68 L 530.19,192.68 L 531.97,193.51 L 533.76,195.17 L 535.54,196.00 L 537.32,196.00 L 539.11,196.00 L 540.89,188.54 L 542.68,196.00 L 544.46,196.00 L 546.24,196.00 L 548.03,196.00 L 549.81,196.00 L 551.59,178.59 L 553.38,196.00 L 555.16,196.00 L 556.95,196.00 L 558.73,196.00 L 560.51,196.00 L 562.30,196.00 L 564.08,196.00 L 565.86,196.00 L 567.65,196.00 L 569.43,196.00 L 571.22,196.00 L 573.00,196.00 L 574.78,196.00 L 576.57,194.34 L 578.35,196.00 L 580.14,192.68 L 581.92,196.00 L 583.70,193.51 L 585.49,196.00 L 587.27,191.86 L 589.05,196.00 L 590.84,191.86 L 592.62,196.00 L 594.41,196.00 L 596.19,187.71 L 597.97,191.03 L 599.76,191.03 L 601.54,191.86 L 603.32,187.71 L 605.11,194.34 L 606.89,195.17 L 608.68,196.00 L 610.46,194.34 L 612.24,172.79 L 614.03,186.88 L 615.81,192.68 L 617.59,189.37 L 619.38,191.86 L 621.16,107.30 L 622.95,189.37 L 624.73,191.03 L 626.51,190.20 L 628.30,186.05 L 630.08,195.17 L 631.86,183.57 L 633.65,193.51 L 635.43,191.86 L 637.22,179.42 L 639.00,176.11 L 640.78,178.59 L 642.57,183.57 L 644.35,191.03 L 646.14,166.99 L 647.92,189.37 L 649.70,196.00 L 651.49,189.37 L 653.27,193.51 L 655.05,196.00 L 656.84,170.30 L 658.62,187.71 L 660.41,186.88 L 662.19,192.68 L 663.97,185.22 L 665.76,192.68 L 667.54,194.34 L 669.32,184.39 L 671.11,190.20 L 672.89,192.68 L 674.68,194.34 L 676.46,196.00 L 678.24,189.37 L 680.03,182.74 L 681.81,196.00 L 683.59,190.20 L 685.38,182.74 L 687.16,181.08 L 688.95,195.17 L 690.73,190.20 L 692.51,160.36 L 694.30,70.00 L 696.08,194.34 L 697.86,195.17 L 699.65,196.00 L 701.43,189.37 L 703.22,194.34 L 705.00,196.00" fill="none" stroke="url(#line-grad)" stroke-width="2" stroke-linejoin="round" stroke-linecap="round"/>
  <text x="705" y="236" font-family="-apple-system, BlinkMacSystemFont, 'Inter', 'Segoe UI', sans-serif" font-size="10.5" fill="#565f89" text-anchor="end">updated 2026-09-26</text>
</svg>
