<svg xmlns="http://www.w3.org/2000/svg" width="750" height="262" viewBox="0 0 750 262" fill="none">
  <defs>
    <filter id="shadow" x="-5%" y="-5%" width="110%" height="110%">
      <feDropShadow dx="0" dy="6" stdDeviation="10" flood-color="#000000" flood-opacity="0.5"/>
    </filter>
    <linearGradient id="header-grad" x1="0" y1="0" x2="200" y2="0" gradientUnits="userSpaceOnUse">
      <stop offset="0%" stop-color="#7aa2f7"/>
      <stop offset="100%" stop-color="#bb9af3"/>
    </linearGradient>
    <linearGradient id="area-fill" x1="0" y1="70" x2="0" y2="196" gradientUnits="userSpaceOnUse">
      <stop offset="0%" stop-color="#7aa2f7" stop-opacity="0.35"/>
      <stop offset="100%" stop-color="#7aa2f7" stop-opacity="0"/>
    </linearGradient>
    <linearGradient id="line-grad" x1="45" y1="0" x2="705" y2="0" gradientUnits="userSpaceOnUse">
      <stop offset="0%" stop-color="#7aa2f7"/>
      <stop offset="100%" stop-color="#bb9af3"/>
    </linearGradient>
    
  </defs>

  <rect x="15" y="15" width="720" height="232" rx="12" fill="#1a1b26" stroke="#24283b" stroke-width="1.5" filter="url(#shadow)"/>

  <text x="45" y="46" font-family="-apple-system, BlinkMacSystemFont, 'Inter', 'Segoe UI', sans-serif" font-size="12" font-weight="800" fill="#7aa2f7" letter-spacing="1">CONTRIBUTION ACTIVITY</text>
  <rect x="45" y="53" width="45" height="2" rx="1" fill="url(#header-grad)"/>
  <text x="705" y="46" font-family="-apple-system, BlinkMacSystemFont, 'Inter', 'Segoe UI', sans-serif" font-size="11.5" font-weight="600" fill="#565f89" text-anchor="end">1,003 in the last year</text>
  <line x1="45" y1="196" x2="705" y2="196" stroke="#24283b" stroke-width="1"/>
  <line x1="62.93" y1="70" x2="62.93" y2="196" stroke="#24283b" stroke-width="1" opacity="0.5"/>
  <text x="62.93" y="216" font-family="-apple-system, BlinkMacSystemFont, 'Inter', 'Segoe UI', sans-serif" font-size="10" fill="#565f89" text-anchor="middle">Oct</text>
  <line x1="118.53" y1="70" x2="118.53" y2="196" stroke="#24283b" stroke-width="1" opacity="0.5"/>
  <text x="118.53" y="216" font-family="-apple-system, BlinkMacSystemFont, 'Inter', 'Segoe UI', sans-serif" font-size="10" fill="#565f89" text-anchor="middle">Nov</text>
  <line x1="172.34" y1="70" x2="172.34" y2="196" stroke="#24283b" stroke-width="1" opacity="0.5"/>
  <text x="172.34" y="216" font-family="-apple-system, BlinkMacSystemFont, 'Inter', 'Segoe UI', sans-serif" font-size="10" fill="#565f89" text-anchor="middle">Dec</text>
  <line x1="227.93" y1="70" x2="227.93" y2="196" stroke="#24283b" stroke-width="1" opacity="0.5"/>
  <text x="227.93" y="216" font-family="-apple-system, BlinkMacSystemFont, 'Inter', 'Segoe UI', sans-serif" font-size="10" fill="#565f89" text-anchor="middle">Jan</text>
  <line x1="283.53" y1="70" x2="283.53" y2="196" stroke="#24283b" stroke-width="1" opacity="0.5"/>
  <text x="283.53" y="216" font-family="-apple-system, BlinkMacSystemFont, 'Inter', 'Segoe UI', sans-serif" font-size="10" fill="#565f89" text-anchor="middle">Feb</text>
  <line x1="333.75" y1="70" x2="333.75" y2="196" stroke="#24283b" stroke-width="1" opacity="0.5"/>
  <text x="333.75" y="216" font-family="-apple-system, BlinkMacSystemFont, 'Inter', 'Segoe UI', sans-serif" font-size="10" fill="#565f89" text-anchor="middle">Mar</text>
  <line x1="389.35" y1="70" x2="389.35" y2="196" stroke="#24283b" stroke-width="1" opacity="0.5"/>
  <text x="389.35" y="216" font-family="-apple-system, BlinkMacSystemFont, 'Inter', 'Segoe UI', sans-serif" font-size="10" fill="#565f89" text-anchor="middle">Apr</text>
  <line x1="443.15" y1="70" x2="443.15" y2="196" stroke="#24283b" stroke-width="1" opacity="0.5"/>
  <text x="443.15" y="216" font-family="-apple-system, BlinkMacSystemFont, 'Inter', 'Segoe UI', sans-serif" font-size="10" fill="#565f89" text-anchor="middle">May</text>
  <line x1="498.75" y1="70" x2="498.75" y2="196" stroke="#24283b" stroke-width="1" opacity="0.5"/>
  <text x="498.75" y="216" font-family="-apple-system, BlinkMacSystemFont, 'Inter', 'Segoe UI', sans-serif" font-size="10" fill="#565f89" text-anchor="middle">Jun</text>
  <line x1="552.55" y1="70" x2="552.55" y2="196" stroke="#24283b" stroke-width="1" opacity="0.5"/>
  <text x="552.55" y="216" font-family="-apple-system, BlinkMacSystemFont, 'Inter', 'Segoe UI', sans-serif" font-size="10" fill="#565f89" text-anchor="middle">Jul</text>
  <line x1="608.15" y1="70" x2="608.15" y2="196" stroke="#24283b" stroke-width="1" opacity="0.5"/>
  <text x="608.15" y="216" font-family="-apple-system, BlinkMacSystemFont, 'Inter', 'Segoe UI', sans-serif" font-size="10" fill="#565f89" text-anchor="middle">Aug</text>
  <line x1="663.75" y1="70" x2="663.75" y2="196" stroke="#24283b" stroke-width="1" opacity="0.5"/>
  <text x="663.75" y="216" font-family="-apple-system, BlinkMacSystemFont, 'Inter', 'Segoe UI', sans-serif" font-size="10" fill="#565f89" text-anchor="middle">Sep</text>
  <path d="M 45.00,196.00 L 46.79,196.00 L 48.59,196.00 L 50.38,196.00 L 52.17,196.00 L 53.97,196.00 L 55.76,196.00 L 57.55,196.00 L 59.35,196.00 L 61.14,196.00 L 62.93,196.00 L 64.73,191.86 L 66.52,196.00 L 68.32,196.00 L 70.11,196.00 L 71.90,196.00 L 73.70,196.00 L 75.49,196.00 L 77.28,196.00 L 79.08,196.00 L 80.87,196.00 L 82.66,196.00 L 84.46,196.00 L 86.25,196.00 L 88.04,196.00 L 89.84,196.00 L 91.63,196.00 L 93.42,196.00 L 95.22,196.00 L 97.01,196.00 L 98.80,196.00 L 100.60,196.00 L 102.39,196.00 L 104.18,196.00 L 105.98,196.00 L 107.77,196.00 L 109.57,196.00 L 111.36,196.00 L 113.15,196.00 L 114.95,196.00 L 116.74,196.00 L 118.53,196.00 L 120.33,196.00 L 122.12,196.00 L 123.91,196.00 L 125.71,196.00 L 127.50,196.00 L 129.29,196.00 L 131.09,196.00 L 132.88,196.00 L 134.67,196.00 L 136.47,196.00 L 138.26,196.00 L 140.05,196.00 L 141.85,196.00 L 143.64,193.51 L 145.43,196.00 L 147.23,195.17 L 149.02,196.00 L 150.82,196.00 L 152.61,196.00 L 154.40,196.00 L 156.20,196.00 L 157.99,196.00 L 159.78,196.00 L 161.58,196.00 L 163.37,196.00 L 165.16,196.00 L 166.96,196.00 L 168.75,193.51 L 170.54,196.00 L 172.34,196.00 L 174.13,196.00 L 175.92,196.00 L 177.72,196.00 L 179.51,196.00 L 181.30,196.00 L 183.10,196.00 L 184.89,196.00 L 186.68,196.00 L 188.48,196.00 L 190.27,196.00 L 192.07,196.00 L 193.86,196.00 L 195.65,196.00 L 197.45,196.00 L 199.24,196.00 L 201.03,196.00 L 202.83,196.00 L 204.62,196.00 L 206.41,196.00 L 208.21,196.00 L 210.00,196.00 L 211.79,196.00 L 213.59,196.00 L 215.38,196.00 L 217.17,196.00 L 218.97,196.00 L 220.76,196.00 L 222.55,196.00 L 224.35,196.00 L 226.14,196.00 L 227.93,196.00 L 229.73,196.00 L 231.52,196.00 L 233.32,196.00 L 235.11,196.00 L 236.90,196.00 L 238.70,196.00 L 240.49,196.00 L 242.28,196.00 L 244.08,196.00 L 245.87,196.00 L 247.66,196.00 L 249.46,196.00 L 251.25,196.00 L 253.04,196.00 L 254.84,196.00 L 256.63,196.00 L 258.42,194.34 L 260.22,196.00 L 262.01,196.00 L 263.80,196.00 L 265.60,196.00 L 267.39,196.00 L 269.18,196.00 L 270.98,196.00 L 272.77,196.00 L 274.57,196.00 L 276.36,196.00 L 278.15,196.00 L 279.95,196.00 L 281.74,196.00 L 283.53,196.00 L 285.33,196.00 L 287.12,196.00 L 288.91,196.00 L 290.71,196.00 L 292.50,196.00 L 294.29,196.00 L 296.09,196.00 L 297.88,196.00 L 299.67,196.00 L 301.47,196.00 L 303.26,196.00 L 305.05,196.00 L 306.85,191.86 L 308.64,196.00 L 310.43,196.00 L 312.23,196.00 L 314.02,196.00 L 315.82,196.00 L 317.61,196.00 L 319.40,196.00 L 321.20,196.00 L 322.99,196.00 L 324.78,196.00 L 326.58,196.00 L 328.37,192.68 L 330.16,195.17 L 331.96,196.00 L 333.75,196.00 L 335.54,196.00 L 337.34,196.00 L 339.13,196.00 L 340.92,196.00 L 342.72,196.00 L 344.51,196.00 L 346.30,196.00 L 348.10,196.00 L 349.89,196.00 L 351.68,196.00 L 353.48,196.00 L 355.27,196.00 L 357.07,196.00 L 358.86,196.00 L 360.65,196.00 L 362.45,196.00 L 364.24,196.00 L 366.03,196.00 L 367.83,196.00 L 369.62,196.00 L 371.41,196.00 L 373.21,196.00 L 375.00,196.00 L 376.79,193.51 L 378.59,196.00 L 380.38,196.00 L 382.17,196.00 L 383.97,196.00 L 385.76,196.00 L 387.55,196.00 L 389.35,196.00 L 391.14,196.00 L 392.93,196.00 L 394.73,196.00 L 396.52,196.00 L 398.32,196.00 L 400.11,196.00 L 401.90,194.34 L 403.70,196.00 L 405.49,196.00 L 407.28,196.00 L 409.08,196.00 L 410.87,196.00 L 412.66,196.00 L 414.46,195.17 L 416.25,196.00 L 418.04,196.00 L 419.84,196.00 L 421.63,196.00 L 423.42,194.34 L 425.22,190.20 L 427.01,196.00 L 428.80,196.00 L 430.60,196.00 L 432.39,196.00 L 434.18,196.00 L 435.98,194.34 L 437.77,196.00 L 439.57,196.00 L 441.36,196.00 L 443.15,196.00 L 444.95,196.00 L 446.74,196.00 L 448.53,196.00 L 450.33,196.00 L 452.12,196.00 L 453.91,196.00 L 455.71,196.00 L 457.50,196.00 L 459.29,194.34 L 461.09,196.00 L 462.88,196.00 L 464.67,191.86 L 466.47,189.37 L 468.26,195.17 L 470.05,196.00 L 471.85,188.54 L 473.64,187.71 L 475.43,196.00 L 477.23,193.51 L 479.02,195.17 L 480.82,193.51 L 482.61,188.54 L 484.40,196.00 L 486.20,193.51 L 487.99,194.34 L 489.78,193.51 L 491.58,196.00 L 493.37,193.51 L 495.16,196.00 L 496.96,187.71 L 498.75,195.17 L 500.54,193.51 L 502.34,196.00 L 504.13,196.00 L 505.92,195.17 L 507.72,191.03 L 509.51,186.88 L 511.30,179.42 L 513.10,190.20 L 514.89,196.00 L 516.68,194.34 L 518.48,196.00 L 520.27,196.00 L 522.07,195.17 L 523.86,196.00 L 525.65,196.00 L 527.45,196.00 L 529.24,196.00 L 531.03,192.68 L 532.83,192.68 L 534.62,193.51 L 536.41,195.17 L 538.21,196.00 L 540.00,196.00 L 541.79,196.00 L 543.59,188.54 L 545.38,196.00 L 547.17,196.00 L 548.97,196.00 L 550.76,196.00 L 552.55,196.00 L 554.35,178.59 L 556.14,196.00 L 557.93,196.00 L 559.73,196.00 L 561.52,196.00 L 563.32,196.00 L 565.11,196.00 L 566.90,196.00 L 568.70,196.00 L 570.49,196.00 L 572.28,196.00 L 574.08,196.00 L 575.87,196.00 L 577.66,196.00 L 579.46,194.34 L 581.25,196.00 L 583.04,192.68 L 584.84,196.00 L 586.63,193.51 L 588.42,196.00 L 590.22,191.86 L 592.01,196.00 L 593.80,191.86 L 595.60,196.00 L 597.39,196.00 L 599.18,187.71 L 600.98,191.03 L 602.77,191.03 L 604.57,191.86 L 606.36,187.71 L 608.15,194.34 L 609.95,195.17 L 611.74,196.00 L 613.53,194.34 L 615.33,172.79 L 617.12,186.88 L 618.91,192.68 L 620.71,189.37 L 622.50,191.86 L 624.29,107.30 L 626.09,189.37 L 627.88,191.03 L 629.67,190.20 L 631.47,186.05 L 633.26,195.17 L 635.05,183.57 L 636.85,193.51 L 638.64,191.86 L 640.43,179.42 L 642.23,176.11 L 644.02,178.59 L 645.82,183.57 L 647.61,191.03 L 649.40,166.99 L 651.20,189.37 L 652.99,196.00 L 654.78,189.37 L 656.58,193.51 L 658.37,196.00 L 660.16,170.30 L 661.96,187.71 L 663.75,186.88 L 665.54,192.68 L 667.34,185.22 L 669.13,192.68 L 670.92,194.34 L 672.72,184.39 L 674.51,190.20 L 676.30,192.68 L 678.10,194.34 L 679.89,196.00 L 681.68,189.37 L 683.48,182.74 L 685.27,196.00 L 687.07,190.20 L 688.86,182.74 L 690.65,181.08 L 692.45,195.17 L 694.24,190.20 L 696.03,160.36 L 697.83,70.00 L 699.62,194.34 L 701.41,195.17 L 703.21,196.00 L 705.00,194.34 L 705.00,196 L 45.00,196 Z" fill="url(#area-fill)"/>
  <path d="M 45.00,196.00 L 46.79,196.00 L 48.59,196.00 L 50.38,196.00 L 52.17,196.00 L 53.97,196.00 L 55.76,196.00 L 57.55,196.00 L 59.35,196.00 L 61.14,196.00 L 62.93,196.00 L 64.73,191.86 L 66.52,196.00 L 68.32,196.00 L 70.11,196.00 L 71.90,196.00 L 73.70,196.00 L 75.49,196.00 L 77.28,196.00 L 79.08,196.00 L 80.87,196.00 L 82.66,196.00 L 84.46,196.00 L 86.25,196.00 L 88.04,196.00 L 89.84,196.00 L 91.63,196.00 L 93.42,196.00 L 95.22,196.00 L 97.01,196.00 L 98.80,196.00 L 100.60,196.00 L 102.39,196.00 L 104.18,196.00 L 105.98,196.00 L 107.77,196.00 L 109.57,196.00 L 111.36,196.00 L 113.15,196.00 L 114.95,196.00 L 116.74,196.00 L 118.53,196.00 L 120.33,196.00 L 122.12,196.00 L 123.91,196.00 L 125.71,196.00 L 127.50,196.00 L 129.29,196.00 L 131.09,196.00 L 132.88,196.00 L 134.67,196.00 L 136.47,196.00 L 138.26,196.00 L 140.05,196.00 L 141.85,196.00 L 143.64,193.51 L 145.43,196.00 L 147.23,195.17 L 149.02,196.00 L 150.82,196.00 L 152.61,196.00 L 154.40,196.00 L 156.20,196.00 L 157.99,196.00 L 159.78,196.00 L 161.58,196.00 L 163.37,196.00 L 165.16,196.00 L 166.96,196.00 L 168.75,193.51 L 170.54,196.00 L 172.34,196.00 L 174.13,196.00 L 175.92,196.00 L 177.72,196.00 L 179.51,196.00 L 181.30,196.00 L 183.10,196.00 L 184.89,196.00 L 186.68,196.00 L 188.48,196.00 L 190.27,196.00 L 192.07,196.00 L 193.86,196.00 L 195.65,196.00 L 197.45,196.00 L 199.24,196.00 L 201.03,196.00 L 202.83,196.00 L 204.62,196.00 L 206.41,196.00 L 208.21,196.00 L 210.00,196.00 L 211.79,196.00 L 213.59,196.00 L 215.38,196.00 L 217.17,196.00 L 218.97,196.00 L 220.76,196.00 L 222.55,196.00 L 224.35,196.00 L 226.14,196.00 L 227.93,196.00 L 229.73,196.00 L 231.52,196.00 L 233.32,196.00 L 235.11,196.00 L 236.90,196.00 L 238.70,196.00 L 240.49,196.00 L 242.28,196.00 L 244.08,196.00 L 245.87,196.00 L 247.66,196.00 L 249.46,196.00 L 251.25,196.00 L 253.04,196.00 L 254.84,196.00 L 256.63,196.00 L 258.42,194.34 L 260.22,196.00 L 262.01,196.00 L 263.80,196.00 L 265.60,196.00 L 267.39,196.00 L 269.18,196.00 L 270.98,196.00 L 272.77,196.00 L 274.57,196.00 L 276.36,196.00 L 278.15,196.00 L 279.95,196.00 L 281.74,196.00 L 283.53,196.00 L 285.33,196.00 L 287.12,196.00 L 288.91,196.00 L 290.71,196.00 L 292.50,196.00 L 294.29,196.00 L 296.09,196.00 L 297.88,196.00 L 299.67,196.00 L 301.47,196.00 L 303.26,196.00 L 305.05,196.00 L 306.85,191.86 L 308.64,196.00 L 310.43,196.00 L 312.23,196.00 L 314.02,196.00 L 315.82,196.00 L 317.61,196.00 L 319.40,196.00 L 321.20,196.00 L 322.99,196.00 L 324.78,196.00 L 326.58,196.00 L 328.37,192.68 L 330.16,195.17 L 331.96,196.00 L 333.75,196.00 L 335.54,196.00 L 337.34,196.00 L 339.13,196.00 L 340.92,196.00 L 342.72,196.00 L 344.51,196.00 L 346.30,196.00 L 348.10,196.00 L 349.89,196.00 L 351.68,196.00 L 353.48,196.00 L 355.27,196.00 L 357.07,196.00 L 358.86,196.00 L 360.65,196.00 L 362.45,196.00 L 364.24,196.00 L 366.03,196.00 L 367.83,196.00 L 369.62,196.00 L 371.41,196.00 L 373.21,196.00 L 375.00,196.00 L 376.79,193.51 L 378.59,196.00 L 380.38,196.00 L 382.17,196.00 L 383.97,196.00 L 385.76,196.00 L 387.55,196.00 L 389.35,196.00 L 391.14,196.00 L 392.93,196.00 L 394.73,196.00 L 396.52,196.00 L 398.32,196.00 L 400.11,196.00 L 401.90,194.34 L 403.70,196.00 L 405.49,196.00 L 407.28,196.00 L 409.08,196.00 L 410.87,196.00 L 412.66,196.00 L 414.46,195.17 L 416.25,196.00 L 418.04,196.00 L 419.84,196.00 L 421.63,196.00 L 423.42,194.34 L 425.22,190.20 L 427.01,196.00 L 428.80,196.00 L 430.60,196.00 L 432.39,196.00 L 434.18,196.00 L 435.98,194.34 L 437.77,196.00 L 439.57,196.00 L 441.36,196.00 L 443.15,196.00 L 444.95,196.00 L 446.74,196.00 L 448.53,196.00 L 450.33,196.00 L 452.12,196.00 L 453.91,196.00 L 455.71,196.00 L 457.50,196.00 L 459.29,194.34 L 461.09,196.00 L 462.88,196.00 L 464.67,191.86 L 466.47,189.37 L 468.26,195.17 L 470.05,196.00 L 471.85,188.54 L 473.64,187.71 L 475.43,196.00 L 477.23,193.51 L 479.02,195.17 L 480.82,193.51 L 482.61,188.54 L 484.40,196.00 L 486.20,193.51 L 487.99,194.34 L 489.78,193.51 L 491.58,196.00 L 493.37,193.51 L 495.16,196.00 L 496.96,187.71 L 498.75,195.17 L 500.54,193.51 L 502.34,196.00 L 504.13,196.00 L 505.92,195.17 L 507.72,191.03 L 509.51,186.88 L 511.30,179.42 L 513.10,190.20 L 514.89,196.00 L 516.68,194.34 L 518.48,196.00 L 520.27,196.00 L 522.07,195.17 L 523.86,196.00 L 525.65,196.00 L 527.45,196.00 L 529.24,196.00 L 531.03,192.68 L 532.83,192.68 L 534.62,193.51 L 536.41,195.17 L 538.21,196.00 L 540.00,196.00 L 541.79,196.00 L 543.59,188.54 L 545.38,196.00 L 547.17,196.00 L 548.97,196.00 L 550.76,196.00 L 552.55,196.00 L 554.35,178.59 L 556.14,196.00 L 557.93,196.00 L 559.73,196.00 L 561.52,196.00 L 563.32,196.00 L 565.11,196.00 L 566.90,196.00 L 568.70,196.00 L 570.49,196.00 L 572.28,196.00 L 574.08,196.00 L 575.87,196.00 L 577.66,196.00 L 579.46,194.34 L 581.25,196.00 L 583.04,192.68 L 584.84,196.00 L 586.63,193.51 L 588.42,196.00 L 590.22,191.86 L 592.01,196.00 L 593.80,191.86 L 595.60,196.00 L 597.39,196.00 L 599.18,187.71 L 600.98,191.03 L 602.77,191.03 L 604.57,191.86 L 606.36,187.71 L 608.15,194.34 L 609.95,195.17 L 611.74,196.00 L 613.53,194.34 L 615.33,172.79 L 617.12,186.88 L 618.91,192.68 L 620.71,189.37 L 622.50,191.86 L 624.29,107.30 L 626.09,189.37 L 627.88,191.03 L 629.67,190.20 L 631.47,186.05 L 633.26,195.17 L 635.05,183.57 L 636.85,193.51 L 638.64,191.86 L 640.43,179.42 L 642.23,176.11 L 644.02,178.59 L 645.82,183.57 L 647.61,191.03 L 649.40,166.99 L 651.20,189.37 L 652.99,196.00 L 654.78,189.37 L 656.58,193.51 L 658.37,196.00 L 660.16,170.30 L 661.96,187.71 L 663.75,186.88 L 665.54,192.68 L 667.34,185.22 L 669.13,192.68 L 670.92,194.34 L 672.72,184.39 L 674.51,190.20 L 676.30,192.68 L 678.10,194.34 L 679.89,196.00 L 681.68,189.37 L 683.48,182.74 L 685.27,196.00 L 687.07,190.20 L 688.86,182.74 L 690.65,181.08 L 692.45,195.17 L 694.24,190.20 L 696.03,160.36 L 697.83,70.00 L 699.62,194.34 L 701.41,195.17 L 703.21,196.00 L 705.00,194.34" fill="none" stroke="url(#line-grad)" stroke-width="2" stroke-linejoin="round" stroke-linecap="round"/>
  <text x="705" y="236" font-family="-apple-system, BlinkMacSystemFont, 'Inter', 'Segoe UI', sans-serif" font-size="10.5" fill="#565f89" text-anchor="end">updated 2026-09-24</text>
</svg>
