<svg xmlns="http://www.w3.org/2000/svg" width="750" height="262" viewBox="0 0 750 262" fill="none">
  <defs>
    <filter id="shadow" x="-5%" y="-5%" width="110%" height="110%">
      <feDropShadow dx="0" dy="6" stdDeviation="10" flood-color="#000000" flood-opacity="0.5"/>
    </filter>
    <linearGradient id="header-grad" x1="0" y1="0" x2="200" y2="0" gradientUnits="userSpaceOnUse">
      <stop offset="0%" stop-color="#7aa2f7"/>
      <stop offset="100%" stop-color="#bb9af3"/>
    </linearGradient>
    <linearGradient id="area-fill" x1="0" y1="70" x2="0" y2="196" gradientUnits="userSpaceOnUse">
      <stop offset="0%" stop-color="#7aa2f7" stop-opacity="0.35"/>
      <stop offset="100%" stop-color="#7aa2f7" stop-opacity="0"/>
    </linearGradient>
    <linearGradient id="line-grad" x1="45" y1="0" x2="705" y2="0" gradientUnits="userSpaceOnUse">
      <stop offset="0%" stop-color="#7aa2f7"/>
      <stop offset="100%" stop-color="#bb9af3"/>
    </linearGradient>
    
  </defs>

  <rect x="15" y="15" width="720" height="232" rx="12" fill="#1a1b26" stroke="#24283b" stroke-width="1.5" filter="url(#shadow)"/>

  <text x="45" y="46" font-family="-apple-system, BlinkMacSystemFont, 'Inter', 'Segoe UI', sans-serif" font-size="12" font-weight="800" fill="#7aa2f7" letter-spacing="1">CONTRIBUTION ACTIVITY</text>
  <rect x="45" y="53" width="45" height="2" rx="1" fill="url(#header-grad)"/>
  <text x="705" y="46" font-family="-apple-system, BlinkMacSystemFont, 'Inter', 'Segoe UI', sans-serif" font-size="11.5" font-weight="600" fill="#565f89" text-anchor="end">1,023 in the last year</text>
  <line x1="45" y1="196" x2="705" y2="196" stroke="#24283b" stroke-width="1"/>
  <line x1="50.40" y1="70" x2="50.40" y2="196" stroke="#24283b" stroke-width="1" opacity="0.5"/>
  <text x="50.40" y="216" font-family="-apple-system, BlinkMacSystemFont, 'Inter', 'Segoe UI', sans-serif" font-size="10" fill="#565f89" text-anchor="middle">Oct</text>
  <line x1="106.14" y1="70" x2="106.14" y2="196" stroke="#24283b" stroke-width="1" opacity="0.5"/>
  <text x="106.14" y="216" font-family="-apple-system, BlinkMacSystemFont, 'Inter', 'Segoe UI', sans-serif" font-size="10" fill="#565f89" text-anchor="middle">Nov</text>
  <line x1="160.10" y1="70" x2="160.10" y2="196" stroke="#24283b" stroke-width="1" opacity="0.5"/>
  <text x="160.10" y="216" font-family="-apple-system, BlinkMacSystemFont, 'Inter', 'Segoe UI', sans-serif" font-size="10" fill="#565f89" text-anchor="middle">Dec</text>
  <line x1="215.84" y1="70" x2="215.84" y2="196" stroke="#24283b" stroke-width="1" opacity="0.5"/>
  <text x="215.84" y="216" font-family="-apple-system, BlinkMacSystemFont, 'Inter', 'Segoe UI', sans-serif" font-size="10" fill="#565f89" text-anchor="middle">Jan</text>
  <line x1="271.59" y1="70" x2="271.59" y2="196" stroke="#24283b" stroke-width="1" opacity="0.5"/>
  <text x="271.59" y="216" font-family="-apple-system, BlinkMacSystemFont, 'Inter', 'Segoe UI', sans-serif" font-size="10" fill="#565f89" text-anchor="middle">Feb</text>
  <line x1="321.95" y1="70" x2="321.95" y2="196" stroke="#24283b" stroke-width="1" opacity="0.5"/>
  <text x="321.95" y="216" font-family="-apple-system, BlinkMacSystemFont, 'Inter', 'Segoe UI', sans-serif" font-size="10" fill="#565f89" text-anchor="middle">Mar</text>
  <line x1="377.70" y1="70" x2="377.70" y2="196" stroke="#24283b" stroke-width="1" opacity="0.5"/>
  <text x="377.70" y="216" font-family="-apple-system, BlinkMacSystemFont, 'Inter', 'Segoe UI', sans-serif" font-size="10" fill="#565f89" text-anchor="middle">Apr</text>
  <line x1="431.65" y1="70" x2="431.65" y2="196" stroke="#24283b" stroke-width="1" opacity="0.5"/>
  <text x="431.65" y="216" font-family="-apple-system, BlinkMacSystemFont, 'Inter', 'Segoe UI', sans-serif" font-size="10" fill="#565f89" text-anchor="middle">May</text>
  <line x1="487.40" y1="70" x2="487.40" y2="196" stroke="#24283b" stroke-width="1" opacity="0.5"/>
  <text x="487.40" y="216" font-family="-apple-system, BlinkMacSystemFont, 'Inter', 'Segoe UI', sans-serif" font-size="10" fill="#565f89" text-anchor="middle">Jun</text>
  <line x1="541.35" y1="70" x2="541.35" y2="196" stroke="#24283b" stroke-width="1" opacity="0.5"/>
  <text x="541.35" y="216" font-family="-apple-system, BlinkMacSystemFont, 'Inter', 'Segoe UI', sans-serif" font-size="10" fill="#565f89" text-anchor="middle">Jul</text>
  <line x1="597.10" y1="70" x2="597.10" y2="196" stroke="#24283b" stroke-width="1" opacity="0.5"/>
  <text x="597.10" y="216" font-family="-apple-system, BlinkMacSystemFont, 'Inter', 'Segoe UI', sans-serif" font-size="10" fill="#565f89" text-anchor="middle">Aug</text>
  <line x1="652.85" y1="70" x2="652.85" y2="196" stroke="#24283b" stroke-width="1" opacity="0.5"/>
  <text x="652.85" y="216" font-family="-apple-system, BlinkMacSystemFont, 'Inter', 'Segoe UI', sans-serif" font-size="10" fill="#565f89" text-anchor="middle">Sep</text>
  <path d="M 45.00,196.00 L 46.80,196.00 L 48.60,196.00 L 50.40,196.00 L 52.19,193.51 L 53.99,196.00 L 55.79,196.00 L 57.59,196.00 L 59.39,196.00 L 61.19,196.00 L 62.98,196.00 L 64.78,196.00 L 66.58,196.00 L 68.38,196.00 L 70.18,196.00 L 71.98,196.00 L 73.77,196.00 L 75.57,196.00 L 77.37,196.00 L 79.17,196.00 L 80.97,196.00 L 82.77,196.00 L 84.56,196.00 L 86.36,196.00 L 88.16,196.00 L 89.96,196.00 L 91.76,196.00 L 93.56,196.00 L 95.35,196.00 L 97.15,196.00 L 98.95,196.00 L 100.75,196.00 L 102.55,196.00 L 104.35,196.00 L 106.14,196.00 L 107.94,196.00 L 109.74,196.00 L 111.54,196.00 L 113.34,196.00 L 115.14,196.00 L 116.93,196.00 L 118.73,196.00 L 120.53,196.00 L 122.33,196.00 L 124.13,196.00 L 125.93,196.00 L 127.72,196.00 L 129.52,196.00 L 131.32,194.34 L 133.12,196.00 L 134.92,195.17 L 136.72,196.00 L 138.51,196.00 L 140.31,196.00 L 142.11,196.00 L 143.91,196.00 L 145.71,196.00 L 147.51,196.00 L 149.31,196.00 L 151.10,196.00 L 152.90,196.00 L 154.70,196.00 L 156.50,194.34 L 158.30,196.00 L 160.10,196.00 L 161.89,196.00 L 163.69,196.00 L 165.49,196.00 L 167.29,196.00 L 169.09,196.00 L 170.89,196.00 L 172.68,196.00 L 174.48,196.00 L 176.28,196.00 L 178.08,196.00 L 179.88,196.00 L 181.68,196.00 L 183.47,196.00 L 185.27,196.00 L 187.07,196.00 L 188.87,196.00 L 190.67,196.00 L 192.47,196.00 L 194.26,196.00 L 196.06,196.00 L 197.86,196.00 L 199.66,196.00 L 201.46,196.00 L 203.26,196.00 L 205.05,196.00 L 206.85,196.00 L 208.65,196.00 L 210.45,196.00 L 212.25,196.00 L 214.05,196.00 L 215.84,196.00 L 217.64,196.00 L 219.44,196.00 L 221.24,196.00 L 223.04,196.00 L 224.84,196.00 L 226.63,196.00 L 228.43,196.00 L 230.23,196.00 L 232.03,196.00 L 233.83,196.00 L 235.63,196.00 L 237.43,196.00 L 239.22,196.00 L 241.02,196.00 L 242.82,196.00 L 244.62,196.00 L 246.42,195.17 L 248.22,196.00 L 250.01,196.00 L 251.81,196.00 L 253.61,196.00 L 255.41,196.00 L 257.21,196.00 L 259.01,196.00 L 260.80,196.00 L 262.60,196.00 L 264.40,196.00 L 266.20,196.00 L 268.00,196.00 L 269.80,196.00 L 271.59,196.00 L 273.39,196.00 L 275.19,196.00 L 276.99,196.00 L 278.79,196.00 L 280.59,196.00 L 282.38,196.00 L 284.18,196.00 L 285.98,196.00 L 287.78,196.00 L 289.58,196.00 L 291.38,196.00 L 293.17,196.00 L 294.97,191.86 L 296.77,196.00 L 298.57,196.00 L 300.37,196.00 L 302.17,196.00 L 303.96,196.00 L 305.76,196.00 L 307.56,196.00 L 309.36,196.00 L 311.16,196.00 L 312.96,196.00 L 314.75,196.00 L 316.55,192.68 L 318.35,195.17 L 320.15,196.00 L 321.95,196.00 L 323.75,196.00 L 325.54,196.00 L 327.34,196.00 L 329.14,196.00 L 330.94,196.00 L 332.74,196.00 L 334.54,196.00 L 336.34,196.00 L 338.13,196.00 L 339.93,196.00 L 341.73,196.00 L 343.53,196.00 L 345.33,196.00 L 347.13,196.00 L 348.92,196.00 L 350.72,196.00 L 352.52,196.00 L 354.32,196.00 L 356.12,196.00 L 357.92,196.00 L 359.71,196.00 L 361.51,196.00 L 363.31,196.00 L 365.11,193.51 L 366.91,196.00 L 368.71,196.00 L 370.50,196.00 L 372.30,196.00 L 374.10,196.00 L 375.90,196.00 L 377.70,196.00 L 379.50,196.00 L 381.29,196.00 L 383.09,196.00 L 384.89,196.00 L 386.69,196.00 L 388.49,196.00 L 390.29,194.34 L 392.08,196.00 L 393.88,196.00 L 395.68,196.00 L 397.48,196.00 L 399.28,196.00 L 401.08,196.00 L 402.87,195.17 L 404.67,196.00 L 406.47,196.00 L 408.27,196.00 L 410.07,196.00 L 411.87,194.34 L 413.66,190.20 L 415.46,196.00 L 417.26,196.00 L 419.06,196.00 L 420.86,196.00 L 422.66,196.00 L 424.46,194.34 L 426.25,196.00 L 428.05,196.00 L 429.85,196.00 L 431.65,196.00 L 433.45,196.00 L 435.25,196.00 L 437.04,196.00 L 438.84,196.00 L 440.64,196.00 L 442.44,196.00 L 444.24,196.00 L 446.04,196.00 L 447.83,194.34 L 449.63,196.00 L 451.43,196.00 L 453.23,191.86 L 455.03,189.37 L 456.83,195.17 L 458.62,196.00 L 460.42,188.54 L 462.22,187.71 L 464.02,196.00 L 465.82,193.51 L 467.62,195.17 L 469.41,193.51 L 471.21,188.54 L 473.01,196.00 L 474.81,193.51 L 476.61,194.34 L 478.41,193.51 L 480.20,196.00 L 482.00,193.51 L 483.80,196.00 L 485.60,187.71 L 487.40,195.17 L 489.20,193.51 L 490.99,196.00 L 492.79,196.00 L 494.59,195.17 L 496.39,191.03 L 498.19,186.88 L 499.99,179.42 L 501.78,190.20 L 503.58,196.00 L 505.38,194.34 L 507.18,196.00 L 508.98,196.00 L 510.78,195.17 L 512.57,196.00 L 514.37,196.00 L 516.17,196.00 L 517.97,196.00 L 519.77,192.68 L 521.57,192.68 L 523.37,193.51 L 525.16,195.17 L 526.96,196.00 L 528.76,196.00 L 530.56,196.00 L 532.36,188.54 L 534.16,196.00 L 535.95,196.00 L 537.75,196.00 L 539.55,196.00 L 541.35,196.00 L 543.15,178.59 L 544.95,196.00 L 546.74,196.00 L 548.54,196.00 L 550.34,196.00 L 552.14,196.00 L 553.94,196.00 L 555.74,196.00 L 557.53,196.00 L 559.33,196.00 L 561.13,196.00 L 562.93,196.00 L 564.73,196.00 L 566.53,196.00 L 568.32,194.34 L 570.12,196.00 L 571.92,192.68 L 573.72,196.00 L 575.52,193.51 L 577.32,196.00 L 579.11,191.86 L 580.91,196.00 L 582.71,191.86 L 584.51,196.00 L 586.31,196.00 L 588.11,187.71 L 589.90,191.03 L 591.70,191.03 L 593.50,191.86 L 595.30,187.71 L 597.10,194.34 L 598.90,195.17 L 600.69,196.00 L 602.49,194.34 L 604.29,172.79 L 606.09,186.88 L 607.89,192.68 L 609.69,189.37 L 611.49,191.86 L 613.28,107.30 L 615.08,189.37 L 616.88,191.03 L 618.68,190.20 L 620.48,186.05 L 622.28,195.17 L 624.07,183.57 L 625.87,193.51 L 627.67,191.86 L 629.47,179.42 L 631.27,176.11 L 633.07,178.59 L 634.86,183.57 L 636.66,191.03 L 638.46,166.99 L 640.26,189.37 L 642.06,196.00 L 643.86,189.37 L 645.65,193.51 L 647.45,196.00 L 649.25,170.30 L 651.05,187.71 L 652.85,186.88 L 654.65,192.68 L 656.44,185.22 L 658.24,192.68 L 660.04,194.34 L 661.84,184.39 L 663.64,190.20 L 665.44,192.68 L 667.23,194.34 L 669.03,196.00 L 670.83,189.37 L 672.63,182.74 L 674.43,196.00 L 676.23,190.20 L 678.02,182.74 L 679.82,181.08 L 681.62,195.17 L 683.42,190.20 L 685.22,160.36 L 687.02,70.00 L 688.81,194.34 L 690.61,195.17 L 692.41,196.00 L 694.21,189.37 L 696.01,194.34 L 697.81,196.00 L 699.60,191.03 L 701.40,194.34 L 703.20,192.68 L 705.00,191.86 L 705.00,196 L 45.00,196 Z" fill="url(#area-fill)"/>
  <path d="M 45.00,196.00 L 46.80,196.00 L 48.60,196.00 L 50.40,196.00 L 52.19,193.51 L 53.99,196.00 L 55.79,196.00 L 57.59,196.00 L 59.39,196.00 L 61.19,196.00 L 62.98,196.00 L 64.78,196.00 L 66.58,196.00 L 68.38,196.00 L 70.18,196.00 L 71.98,196.00 L 73.77,196.00 L 75.57,196.00 L 77.37,196.00 L 79.17,196.00 L 80.97,196.00 L 82.77,196.00 L 84.56,196.00 L 86.36,196.00 L 88.16,196.00 L 89.96,196.00 L 91.76,196.00 L 93.56,196.00 L 95.35,196.00 L 97.15,196.00 L 98.95,196.00 L 100.75,196.00 L 102.55,196.00 L 104.35,196.00 L 106.14,196.00 L 107.94,196.00 L 109.74,196.00 L 111.54,196.00 L 113.34,196.00 L 115.14,196.00 L 116.93,196.00 L 118.73,196.00 L 120.53,196.00 L 122.33,196.00 L 124.13,196.00 L 125.93,196.00 L 127.72,196.00 L 129.52,196.00 L 131.32,194.34 L 133.12,196.00 L 134.92,195.17 L 136.72,196.00 L 138.51,196.00 L 140.31,196.00 L 142.11,196.00 L 143.91,196.00 L 145.71,196.00 L 147.51,196.00 L 149.31,196.00 L 151.10,196.00 L 152.90,196.00 L 154.70,196.00 L 156.50,194.34 L 158.30,196.00 L 160.10,196.00 L 161.89,196.00 L 163.69,196.00 L 165.49,196.00 L 167.29,196.00 L 169.09,196.00 L 170.89,196.00 L 172.68,196.00 L 174.48,196.00 L 176.28,196.00 L 178.08,196.00 L 179.88,196.00 L 181.68,196.00 L 183.47,196.00 L 185.27,196.00 L 187.07,196.00 L 188.87,196.00 L 190.67,196.00 L 192.47,196.00 L 194.26,196.00 L 196.06,196.00 L 197.86,196.00 L 199.66,196.00 L 201.46,196.00 L 203.26,196.00 L 205.05,196.00 L 206.85,196.00 L 208.65,196.00 L 210.45,196.00 L 212.25,196.00 L 214.05,196.00 L 215.84,196.00 L 217.64,196.00 L 219.44,196.00 L 221.24,196.00 L 223.04,196.00 L 224.84,196.00 L 226.63,196.00 L 228.43,196.00 L 230.23,196.00 L 232.03,196.00 L 233.83,196.00 L 235.63,196.00 L 237.43,196.00 L 239.22,196.00 L 241.02,196.00 L 242.82,196.00 L 244.62,196.00 L 246.42,195.17 L 248.22,196.00 L 250.01,196.00 L 251.81,196.00 L 253.61,196.00 L 255.41,196.00 L 257.21,196.00 L 259.01,196.00 L 260.80,196.00 L 262.60,196.00 L 264.40,196.00 L 266.20,196.00 L 268.00,196.00 L 269.80,196.00 L 271.59,196.00 L 273.39,196.00 L 275.19,196.00 L 276.99,196.00 L 278.79,196.00 L 280.59,196.00 L 282.38,196.00 L 284.18,196.00 L 285.98,196.00 L 287.78,196.00 L 289.58,196.00 L 291.38,196.00 L 293.17,196.00 L 294.97,191.86 L 296.77,196.00 L 298.57,196.00 L 300.37,196.00 L 302.17,196.00 L 303.96,196.00 L 305.76,196.00 L 307.56,196.00 L 309.36,196.00 L 311.16,196.00 L 312.96,196.00 L 314.75,196.00 L 316.55,192.68 L 318.35,195.17 L 320.15,196.00 L 321.95,196.00 L 323.75,196.00 L 325.54,196.00 L 327.34,196.00 L 329.14,196.00 L 330.94,196.00 L 332.74,196.00 L 334.54,196.00 L 336.34,196.00 L 338.13,196.00 L 339.93,196.00 L 341.73,196.00 L 343.53,196.00 L 345.33,196.00 L 347.13,196.00 L 348.92,196.00 L 350.72,196.00 L 352.52,196.00 L 354.32,196.00 L 356.12,196.00 L 357.92,196.00 L 359.71,196.00 L 361.51,196.00 L 363.31,196.00 L 365.11,193.51 L 366.91,196.00 L 368.71,196.00 L 370.50,196.00 L 372.30,196.00 L 374.10,196.00 L 375.90,196.00 L 377.70,196.00 L 379.50,196.00 L 381.29,196.00 L 383.09,196.00 L 384.89,196.00 L 386.69,196.00 L 388.49,196.00 L 390.29,194.34 L 392.08,196.00 L 393.88,196.00 L 395.68,196.00 L 397.48,196.00 L 399.28,196.00 L 401.08,196.00 L 402.87,195.17 L 404.67,196.00 L 406.47,196.00 L 408.27,196.00 L 410.07,196.00 L 411.87,194.34 L 413.66,190.20 L 415.46,196.00 L 417.26,196.00 L 419.06,196.00 L 420.86,196.00 L 422.66,196.00 L 424.46,194.34 L 426.25,196.00 L 428.05,196.00 L 429.85,196.00 L 431.65,196.00 L 433.45,196.00 L 435.25,196.00 L 437.04,196.00 L 438.84,196.00 L 440.64,196.00 L 442.44,196.00 L 444.24,196.00 L 446.04,196.00 L 447.83,194.34 L 449.63,196.00 L 451.43,196.00 L 453.23,191.86 L 455.03,189.37 L 456.83,195.17 L 458.62,196.00 L 460.42,188.54 L 462.22,187.71 L 464.02,196.00 L 465.82,193.51 L 467.62,195.17 L 469.41,193.51 L 471.21,188.54 L 473.01,196.00 L 474.81,193.51 L 476.61,194.34 L 478.41,193.51 L 480.20,196.00 L 482.00,193.51 L 483.80,196.00 L 485.60,187.71 L 487.40,195.17 L 489.20,193.51 L 490.99,196.00 L 492.79,196.00 L 494.59,195.17 L 496.39,191.03 L 498.19,186.88 L 499.99,179.42 L 501.78,190.20 L 503.58,196.00 L 505.38,194.34 L 507.18,196.00 L 508.98,196.00 L 510.78,195.17 L 512.57,196.00 L 514.37,196.00 L 516.17,196.00 L 517.97,196.00 L 519.77,192.68 L 521.57,192.68 L 523.37,193.51 L 525.16,195.17 L 526.96,196.00 L 528.76,196.00 L 530.56,196.00 L 532.36,188.54 L 534.16,196.00 L 535.95,196.00 L 537.75,196.00 L 539.55,196.00 L 541.35,196.00 L 543.15,178.59 L 544.95,196.00 L 546.74,196.00 L 548.54,196.00 L 550.34,196.00 L 552.14,196.00 L 553.94,196.00 L 555.74,196.00 L 557.53,196.00 L 559.33,196.00 L 561.13,196.00 L 562.93,196.00 L 564.73,196.00 L 566.53,196.00 L 568.32,194.34 L 570.12,196.00 L 571.92,192.68 L 573.72,196.00 L 575.52,193.51 L 577.32,196.00 L 579.11,191.86 L 580.91,196.00 L 582.71,191.86 L 584.51,196.00 L 586.31,196.00 L 588.11,187.71 L 589.90,191.03 L 591.70,191.03 L 593.50,191.86 L 595.30,187.71 L 597.10,194.34 L 598.90,195.17 L 600.69,196.00 L 602.49,194.34 L 604.29,172.79 L 606.09,186.88 L 607.89,192.68 L 609.69,189.37 L 611.49,191.86 L 613.28,107.30 L 615.08,189.37 L 616.88,191.03 L 618.68,190.20 L 620.48,186.05 L 622.28,195.17 L 624.07,183.57 L 625.87,193.51 L 627.67,191.86 L 629.47,179.42 L 631.27,176.11 L 633.07,178.59 L 634.86,183.57 L 636.66,191.03 L 638.46,166.99 L 640.26,189.37 L 642.06,196.00 L 643.86,189.37 L 645.65,193.51 L 647.45,196.00 L 649.25,170.30 L 651.05,187.71 L 652.85,186.88 L 654.65,192.68 L 656.44,185.22 L 658.24,192.68 L 660.04,194.34 L 661.84,184.39 L 663.64,190.20 L 665.44,192.68 L 667.23,194.34 L 669.03,196.00 L 670.83,189.37 L 672.63,182.74 L 674.43,196.00 L 676.23,190.20 L 678.02,182.74 L 679.82,181.08 L 681.62,195.17 L 683.42,190.20 L 685.22,160.36 L 687.02,70.00 L 688.81,194.34 L 690.61,195.17 L 692.41,196.00 L 694.21,189.37 L 696.01,194.34 L 697.81,196.00 L 699.60,191.03 L 701.40,194.34 L 703.20,192.68 L 705.00,191.86" fill="none" stroke="url(#line-grad)" stroke-width="2" stroke-linejoin="round" stroke-linecap="round"/>
  <text x="705" y="236" font-family="-apple-system, BlinkMacSystemFont, 'Inter', 'Segoe UI', sans-serif" font-size="10.5" fill="#565f89" text-anchor="end">updated 2026-09-30</text>
</svg>
