<svg xmlns="http://www.w3.org/2000/svg" width="750" height="280" viewBox="0 0 750 280" fill="none">
  <defs>
    <filter id="shadow" x="-5%" y="-5%" width="110%" height="110%">
      <feDropShadow dx="0" dy="6" stdDeviation="10" flood-color="#000000" flood-opacity="0.5"/>
    </filter>
  </defs>

  <rect x="15" y="15" width="720" height="250" rx="12" fill="#1a1b26" stroke="#24283b" stroke-width="1.5" filter="url(#shadow)"/>

    <g>
      <g transform="translate(35, 40)" stroke="#7aa2f7" stroke-width="1.5" stroke-linecap="round" stroke-linejoin="round" fill="none">
        <path d="M2 4a2 2 0 0 1 2-2h4l2 2h6a2 2 0 0 1 2 2v8a2 2 0 0 1-2 2H4a2 2 0 0 1-2-2V4z"/>
      </g>
      <text x="62" y="53" font-family="-apple-system, BlinkMacSystemFont, 'Inter', 'Segoe UI', sans-serif" font-size="13.5" font-weight="bold" fill="#7dcfff">RoleFit · 职途星</text>
      <rect x="245" y="41" width="48" height="17" rx="8.5" fill="#352311"/>
      <text x="269" y="53" font-family="-apple-system, BlinkMacSystemFont, 'Inter', 'Segoe UI', sans-serif" font-size="9.5" font-weight="800" fill="#e0af68" text-anchor="middle">Build</text>
      <foreignObject x="305" y="40" width="410" height="32">
        <div xmlns="http://www.w3.org/1999/xhtml" style="font-family: -apple-system, BlinkMacSystemFont, 'Inter', 'Segoe UI', sans-serif; font-size: 11.5px; color: #a9b1d6; line-height: 1.35; overflow: hidden; display: -webkit-box; -webkit-line-clamp: 2; -webkit-box-orient: vertical; margin: 0; padding: 0;">面向中文招聘数据的可解释智能人岗匹配系统 / Explainable AI job matching for Chinese recruitment data.</div>
      </foreignObject>
    </g>
    <line x1="35" y1="76" x2="715" y2="76" stroke="#24283b" stroke-width="1"/>
    <g>
      <g transform="translate(35, 88)" stroke="#7aa2f7" stroke-width="1.5" stroke-linecap="round" stroke-linejoin="round" fill="none">
        <path d="M2 4a2 2 0 0 1 2-2h4l2 2h6a2 2 0 0 1 2 2v8a2 2 0 0 1-2 2H4a2 2 0 0 1-2-2V4z"/>
      </g>
      <text x="62" y="101" font-family="-apple-system, BlinkMacSystemFont, 'Inter', 'Segoe UI', sans-serif" font-size="13.5" font-weight="bold" fill="#7dcfff">知乎沉浸阅读</text>
      <rect x="245" y="89" width="48" height="17" rx="8.5" fill="#132f22"/>
      <text x="269" y="101" font-family="-apple-system, BlinkMacSystemFont, 'Inter', 'Segoe UI', sans-serif" font-size="9.5" font-weight="800" fill="#22c55e" text-anchor="middle">Live</text>
      <foreignObject x="305" y="88" width="410" height="32">
        <div xmlns="http://www.w3.org/1999/xhtml" style="font-family: -apple-system, BlinkMacSystemFont, 'Inter', 'Segoe UI', sans-serif; font-size: 11.5px; color: #a9b1d6; line-height: 1.35; overflow: hidden; display: -webkit-box; -webkit-line-clamp: 2; -webkit-box-orient: vertical; margin: 0; padding: 0;">知乎纯净阅读、AI 总结与 Markdown 导出 / Immersive Zhihu reading with AI summaries and exports.</div>
      </foreignObject>
    </g>
    <line x1="35" y1="124" x2="715" y2="124" stroke="#24283b" stroke-width="1"/>
    <g>
      <g transform="translate(35, 136)" stroke="#7aa2f7" stroke-width="1.5" stroke-linecap="round" stroke-linejoin="round" fill="none">
        <path d="M2 4a2 2 0 0 1 2-2h4l2 2h6a2 2 0 0 1 2 2v8a2 2 0 0 1-2 2H4a2 2 0 0 1-2-2V4z"/>
      </g>
      <text x="62" y="149" font-family="-apple-system, BlinkMacSystemFont, 'Inter', 'Segoe UI', sans-serif" font-size="13.5" font-weight="bold" fill="#7dcfff">trae2api-web</text>
      <rect x="245" y="137" width="48" height="17" rx="8.5" fill="#132f22"/>
      <text x="269" y="149" font-family="-apple-system, BlinkMacSystemFont, 'Inter', 'Segoe UI', sans-serif" font-size="9.5" font-weight="800" fill="#22c55e" text-anchor="middle">Live</text>
      <foreignObject x="305" y="136" width="410" height="32">
        <div xmlns="http://www.w3.org/1999/xhtml" style="font-family: -apple-system, BlinkMacSystemFont, 'Inter', 'Segoe UI', sans-serif; font-size: 11.5px; color: #a9b1d6; line-height: 1.35; overflow: hidden; display: -webkit-box; -webkit-line-clamp: 2; -webkit-box-orient: vertical; margin: 0; padding: 0;">TRAE SOLO 的 OpenAI 兼容代理与中文管理面板 / OpenAI-compatible proxy with a web console.</div>
      </foreignObject>
    </g>
    <line x1="35" y1="172" x2="715" y2="172" stroke="#24283b" stroke-width="1"/>
    <g>
      <g transform="translate(35, 184)" stroke="#7aa2f7" stroke-width="1.5" stroke-linecap="round" stroke-linejoin="round" fill="none">
        <path d="M2 4a2 2 0 0 1 2-2h4l2 2h6a2 2 0 0 1 2 2v8a2 2 0 0 1-2 2H4a2 2 0 0 1-2-2V4z"/>
      </g>
      <text x="62" y="197" font-family="-apple-system, BlinkMacSystemFont, 'Inter', 'Segoe UI', sans-serif" font-size="13.5" font-weight="bold" fill="#7dcfff">三国杀台词鉴赏馆</text>
      <rect x="245" y="185" width="48" height="17" rx="8.5" fill="#132f22"/>
      <text x="269" y="197" font-family="-apple-system, BlinkMacSystemFont, 'Inter', 'Segoe UI', sans-serif" font-size="9.5" font-weight="800" fill="#22c55e" text-anchor="middle">Live</text>
      <foreignObject x="305" y="184" width="410" height="32">
        <div xmlns="http://www.w3.org/1999/xhtml" style="font-family: -apple-system, BlinkMacSystemFont, 'Inter', 'Segoe UI', sans-serif; font-size: 11.5px; color: #a9b1d6; line-height: 1.35; overflow: hidden; display: -webkit-box; -webkit-line-clamp: 2; -webkit-box-orient: vertical; margin: 0; padding: 0;">台词检索、古文解析与语音播放 / Searchable Sanguosha quotes, annotations, and audio.</div>
      </foreignObject>
    </g>
    <line x1="35" y1="220" x2="715" y2="220" stroke="#24283b" stroke-width="1"/>
    <g>
      <g transform="translate(35, 232)" stroke="#7aa2f7" stroke-width="1.5" stroke-linecap="round" stroke-linejoin="round" fill="none">
        <path d="M2 4a2 2 0 0 1 2-2h4l2 2h6a2 2 0 0 1 2 2v8a2 2 0 0 1-2 2H4a2 2 0 0 1-2-2V4z"/>
      </g>
      <text x="62" y="245" font-family="-apple-system, BlinkMacSystemFont, 'Inter', 'Segoe UI', sans-serif" font-size="13.5" font-weight="bold" fill="#7dcfff">DeepSeek 非官方 API</text>
      <rect x="245" y="233" width="48" height="17" rx="8.5" fill="#24183d"/>
      <text x="269" y="245" font-family="-apple-system, BlinkMacSystemFont, 'Inter', 'Segoe UI', sans-serif" font-size="9.5" font-weight="800" fill="#bb9af3" text-anchor="middle">Lab</text>
      <foreignObject x="305" y="232" width="410" height="32">
        <div xmlns="http://www.w3.org/1999/xhtml" style="font-family: -apple-system, BlinkMacSystemFont, 'Inter', 'Segoe UI', sans-serif; font-size: 11.5px; color: #a9b1d6; line-height: 1.35; overflow: hidden; display: -webkit-box; -webkit-line-clamp: 2; -webkit-box-orient: vertical; margin: 0; padding: 0;">支持专家模式的非官方接口实验 / Unofficial API experiments for DeepSeek Expert Mode.</div>
      </foreignObject>
    </g>
    
</svg>
